<svg width="144" height="108" viewBox="0 0 144 108" fill="none" xmlns="http://www.w3.org/2000/svg">
<path d="M144 94.9087H0V94.9812H144V94.9087Z" fill="#EBEBEB"/>
<path d="M129.571 99.573H120.032V99.6455H129.571V99.573Z" fill="#EBEBEB"/>
<path d="M95.3914 100.362H92.8887V100.434H95.3914V100.362Z" fill="#EBEBEB"/>
<path d="M119.744 96.8829H114.218V96.9554H119.744V96.8829Z" fill="#EBEBEB"/>
<path d="M27.5471 97.3699H15.1084V97.4424H27.5471V97.3699Z" fill="#EBEBEB"/>
<path d="M31.9363 97.3699H30.1133V97.4424H31.9363V97.3699Z" fill="#EBEBEB"/>
<path d="M64.8431 98.5932H37.8633V98.6657H64.8431V98.5932Z" fill="#EBEBEB"/>
<path d="M68.2558 81.9798H12.6459C12.2102 81.979 11.7927 81.8043 11.4849 81.494C11.1771 81.1836 11.0043 80.7631 11.0043 80.3246V1.64076C11.0081 1.20477 11.1826 0.787905 11.49 0.480695C11.7973 0.173485 12.2127 0.000746859 12.6459 0H68.2558C68.6919 0 69.1102 0.174392 69.4186 0.484812C69.727 0.795231 69.9003 1.21625 69.9003 1.65525V80.3246C69.9003 80.7636 69.727 81.1846 69.4186 81.495C69.1102 81.8054 68.6919 81.9798 68.2558 81.9798ZM12.6459 0.0579775C12.2293 0.0587454 11.8301 0.22584 11.5358 0.522586C11.2415 0.819331 11.0763 1.22148 11.0763 1.64076V80.3246C11.0763 80.7438 11.2415 81.146 11.5358 81.4427C11.8301 81.7395 12.2293 81.9066 12.6459 81.9073H68.2558C68.6726 81.9066 69.0721 81.7396 69.3669 81.4429C69.6616 81.1462 69.8275 80.7441 69.8283 80.3246V1.64076C69.8275 1.22121 69.6616 0.819071 69.3669 0.522409C69.0721 0.225746 68.6726 0.0587438 68.2558 0.0579775H12.6459Z" fill="#EBEBEB"/>
<path d="M130.554 81.9798H74.9407C74.5048 81.979 74.087 81.8044 73.7788 81.4942C73.4705 81.1839 73.297 80.7633 73.2963 80.3246V1.64076C73.3008 1.20451 73.476 0.787643 73.7838 0.480513C74.0916 0.173383 74.5073 0.000738714 74.9407 0H130.554C130.986 0.00150871 131.401 0.174584 131.708 0.481712C132.014 0.78884 132.188 1.20528 132.192 1.64076V80.3246C132.192 80.7626 132.02 81.1827 131.713 81.493C131.405 81.8032 130.989 81.9783 130.554 81.9798ZM74.9407 0.0579775C74.5239 0.0587438 74.1244 0.225746 73.8297 0.522409C73.5349 0.819071 73.369 1.22121 73.3683 1.64076V80.3246C73.369 80.7441 73.5349 81.1462 73.8297 81.4429C74.1244 81.7396 74.5239 81.9066 74.9407 81.9073H130.554C130.97 81.9066 131.37 81.7396 131.665 81.4429C131.959 81.1462 132.125 80.7441 132.126 80.3246V1.64076C132.125 1.22121 131.959 0.819071 131.665 0.522409C131.37 0.225746 130.97 0.0587438 130.554 0.0579775H74.9407Z" fill="#EBEBEB"/>
<path d="M102.217 47.8515H94.8848V50.991H102.217V47.8515Z" fill="#FAFAFA"/>
<path d="M93.3461 47.8515H86.0137V50.991H93.3461V47.8515Z" fill="#FAFAFA"/>
<path d="M84.4731 47.8515H77.1406V50.991H84.4731V47.8515Z" fill="#FAFAFA"/>
<path d="M106.655 52.2231H99.3228V55.3626H106.655V52.2231Z" fill="#FAFAFA"/>
<path d="M97.7817 52.2231H90.4492V55.3626H97.7817V52.2231Z" fill="#FAFAFA"/>
<path d="M88.9086 52.2231H81.5762V55.3626H88.9086V52.2231Z" fill="#FAFAFA"/>
<path d="M80.0351 52.2231H72.7026V55.3626H80.0351V52.2231Z" fill="#FAFAFA"/>
<path d="M111.09 56.5945H103.757V59.734H111.09V56.5945Z" fill="#FAFAFA"/>
<path d="M120.398 65.6273H113.066V68.7668H120.398V65.6273Z" fill="#FAFAFA"/>
<path d="M102.217 56.5945H94.8848V59.734H102.217V56.5945Z" fill="#FAFAFA"/>
<path d="M93.3461 56.5945H86.0137V59.734H93.3461V56.5945Z" fill="#FAFAFA"/>
<path d="M84.4731 56.5945H77.1406V59.734H84.4731V56.5945Z" fill="#FAFAFA"/>
<path d="M75.6001 56.5945H68.2676V59.734H75.6001V56.5945Z" fill="#FAFAFA"/>
<path d="M106.655 60.9661H99.3228V64.1056H106.655V60.9661Z" fill="#FAFAFA"/>
<path d="M97.7817 60.9661H90.4492V64.1056H97.7817V60.9661Z" fill="#FAFAFA"/>
<path d="M88.9086 60.9661H81.5762V64.1056H88.9086V60.9661Z" fill="#FAFAFA"/>
<path d="M80.0351 60.9661H72.7026V64.1056H80.0351V60.9661Z" fill="#FAFAFA"/>
<path d="M54.0664 3.31342H46.7339V6.45288H54.0664V3.31342Z" fill="#FAFAFA"/>
<path d="M45.1958 3.31342H37.8633V6.45288H45.1958V3.31342Z" fill="#FAFAFA"/>
<path d="M58.5039 7.68491H51.1714V10.8244H58.5039V7.68491Z" fill="#FAFAFA"/>
<path d="M49.6313 7.68491H42.2988V10.8244H49.6313V7.68491Z" fill="#FAFAFA"/>
<path d="M31.8877 7.68491H24.5552V10.8244H31.8877V7.68491Z" fill="#FAFAFA"/>
<path d="M23.0141 7.68491H15.6816V10.8244H23.0141V7.68491Z" fill="#FAFAFA"/>
<path d="M54.0664 12.0564H46.7339V15.1959H54.0664V12.0564Z" fill="#FAFAFA"/>
<path d="M45.1958 12.0564H37.8633V15.1959H45.1958V12.0564Z" fill="#FAFAFA"/>
<path d="M27.4497 12.0564H20.1172V15.1959H27.4497V12.0564Z" fill="#FAFAFA"/>
<path d="M22.4755 26.7535H15.1431V29.893H22.4755V26.7535Z" fill="#FAFAFA"/>
<path d="M31.3486 26.7535H24.0161V29.893H31.3486V26.7535Z" fill="#FAFAFA"/>
<path d="M26.9135 22.3821H19.5811V25.5216H26.9135V22.3821Z" fill="#FAFAFA"/>
<path d="M61.3237 21.7414H53.9912V24.8809H61.3237V21.7414Z" fill="#FAFAFA"/>
<path d="M52.4536 21.7414H45.1211V24.8809H52.4536V21.7414Z" fill="#FAFAFA"/>
<path d="M56.8886 26.113H49.5562V29.2525H56.8886V26.113Z" fill="#FAFAFA"/>
<path d="M91.5898 3.50179H84.2573V6.64125H91.5898V3.50179Z" fill="#FAFAFA"/>
<path d="M82.7192 3.50179H75.3867V6.64125H82.7192V3.50179Z" fill="#FAFAFA"/>
<path d="M96.0278 7.87338H88.6953V11.0128H96.0278V7.87338Z" fill="#FAFAFA"/>
<path d="M87.1543 7.87338H79.8218V11.0128H87.1543V7.87338Z" fill="#FAFAFA"/>
<path d="M118.676 5.29053H111.344V8.42999H118.676V5.29053Z" fill="#FAFAFA"/>
<path d="M123.112 9.66182H115.779V12.8013H123.112V9.66182Z" fill="#FAFAFA"/>
<path d="M121.363 47.2398H114.031V50.3793H121.363V47.2398Z" fill="#FAFAFA"/>
<path d="M114.238 9.66182H106.906V12.8013H114.238V9.66182Z" fill="#FAFAFA"/>
<path d="M78.2817 7.87338H70.9492V11.0128H78.2817V7.87338Z" fill="#FAFAFA"/>
<path d="M100.463 12.2449H93.1304V15.3843H100.463V12.2449Z" fill="#FAFAFA"/>
<path d="M91.5898 12.2449H84.2573V15.3843H91.5898V12.2449Z" fill="#FAFAFA"/>
<path d="M82.7192 12.2449H75.3867V15.3843H82.7192V12.2449Z" fill="#FAFAFA"/>
<path d="M96.0278 16.6163H88.6953V19.7557H96.0278V16.6163Z" fill="#FAFAFA"/>
<path d="M87.1543 16.6163H79.8218V19.7557H87.1543V16.6163Z" fill="#FAFAFA"/>
<path d="M31.0405 42.6917H23.708V45.8311H31.0405V42.6917Z" fill="#FAFAFA"/>
<path d="M22.1674 42.6917H14.835V45.8311H22.1674V42.6917Z" fill="#FAFAFA"/>
<path d="M53.2226 47.063H45.8901V50.2024H53.2226V47.063Z" fill="#FAFAFA"/>
<path d="M35.4765 47.063H28.144V50.2024H35.4765V47.063Z" fill="#FAFAFA"/>
<path d="M26.6054 47.063H19.2729V50.2024H26.6054V47.063Z" fill="#FAFAFA"/>
<path d="M57.6577 51.4344H50.3252V54.5739H57.6577V51.4344Z" fill="#FAFAFA"/>
<path d="M48.7871 51.4344H41.4546V54.5739H48.7871V51.4344Z" fill="#FAFAFA"/>
<path d="M31.0405 51.4344H23.708V54.5739H31.0405V51.4344Z" fill="#FAFAFA"/>
<path d="M22.1674 51.4344H14.835V54.5739H22.1674V51.4344Z" fill="#FAFAFA"/>
<path d="M35.4765 55.8059H28.144V58.9454H35.4765V55.8059Z" fill="#FAFAFA"/>
<path d="M26.6054 55.8059H19.2729V58.9454H26.6054V55.8059Z" fill="#FAFAFA"/>
<path d="M52.3413 64.4997H45.0088V67.6392H52.3413V64.4997Z" fill="#FAFAFA"/>
<path d="M43.4682 64.4997H36.1357V67.6392H43.4682V64.4997Z" fill="#FAFAFA"/>
<path d="M32.5698 71.8686H25.2373V75.0081H32.5698V71.8686Z" fill="#FAFAFA"/>
<path d="M23.6967 71.8686H16.3643V75.0081H23.6967V71.8686Z" fill="#FAFAFA"/>
<path d="M54.7519 76.2401H47.4194V79.3796H54.7519V76.2401Z" fill="#FAFAFA"/>
<path d="M47.9062 68.8711H40.5737V72.0106H47.9062V68.8711Z" fill="#FAFAFA"/>
<path d="M28.1318 76.2401H20.7993V79.3796H28.1318V76.2401Z" fill="#FAFAFA"/>
<path d="M59.1865 80.6116H51.854V83.7511H59.1865V80.6116Z" fill="#FAFAFA"/>
<path d="M50.3134 80.6116H42.981V83.7511H50.3134V80.6116Z" fill="#FAFAFA"/>
<path d="M41.4404 80.6116H34.1079V83.7511H41.4404V80.6116Z" fill="#FAFAFA"/>
<path d="M54.7519 84.9831H47.4194V88.1226H54.7519V84.9831Z" fill="#FAFAFA"/>
<path d="M45.8779 84.9831H38.5454V88.1226H45.8779V84.9831Z" fill="#FAFAFA"/>
<path d="M37.0053 84.9831H29.6729V88.1226H37.0053V84.9831Z" fill="#FAFAFA"/>
<path d="M100.475 71.6686H93.1421V74.8081H100.475V71.6686Z" fill="#FAFAFA"/>
<path d="M91.6015 71.6686H84.269V74.8081H91.6015V71.6686Z" fill="#FAFAFA"/>
<path d="M82.728 71.6686H75.3955V74.8081H82.728V71.6686Z" fill="#FAFAFA"/>
<path d="M104.91 76.0401H97.5776V79.1796H104.91V76.0401Z" fill="#FAFAFA"/>
<path d="M96.0366 76.0401H88.7041V79.1796H96.0366V76.0401Z" fill="#FAFAFA"/>
<path d="M87.166 76.0401H79.8335V79.1796H87.166V76.0401Z" fill="#FAFAFA"/>
<path d="M78.2929 76.0401H70.9604V79.1796H78.2929V76.0401Z" fill="#FAFAFA"/>
<path d="M91.6015 80.4116H84.269V83.551H91.6015V80.4116Z" fill="#FAFAFA"/>
<path d="M82.728 80.4116H75.3955V83.551H82.728V80.4116Z" fill="#FAFAFA"/>
<path d="M96.0366 84.7831H88.7041V87.9225H96.0366V84.7831Z" fill="#FAFAFA"/>
<path d="M87.166 84.7831H79.8335V87.9225H87.166V84.7831Z" fill="#FAFAFA"/>
<path d="M78.2929 84.7831H70.9604V87.9225H78.2929V84.7831Z" fill="#FAFAFA"/>
<path d="M104.581 40.9957H124.802V15.6191L104.581 15.6191V40.9957Z" fill="#F5F5F5"/>
<path d="M121.098 37.6852C118.552 39.5231 118.546 40.529 116.72 38.4708C114.895 36.4126 113.627 33.9167 110.318 35.2212C107.009 36.5257 105.163 33.1572 107.283 30.0641C109.402 26.9711 108.625 22.7474 107.283 20.724C105.941 18.7006 106.566 15.9786 108.705 17.5034C110.845 19.0282 113.743 19.0253 115.813 17.9527C117.884 16.8801 120.306 14.219 120.133 18.8658C119.96 23.5127 122.322 22.0546 122.933 24.4027C123.543 26.7507 120.594 25.2723 121.11 30.4091C121.625 35.5459 123.356 36.0532 121.098 37.6852Z" fill="#E0E0E0"/>
<path d="M108.643 38.468C111.739 39.8508 113.052 40.532 114.5 37.4534C115.949 34.3748 118.872 30.2758 120.983 31.4122C123.094 32.5485 122.455 27.377 118.391 28.6756C114.328 29.9743 113.366 29.3163 111.934 26.2087C110.503 23.1011 110.846 21.3763 109.129 22.5069C107.413 23.6374 109.78 27.1277 108.807 29.9453C107.833 32.763 105.863 37.2302 108.643 38.468Z" fill="#EBEBEB"/>
<path d="M119.494 22.7532C118.244 25.165 119.929 29.0176 116.671 27.3914C113.414 25.7651 114.773 19.5644 111.968 21.0139C109.163 22.4633 111.061 26.7391 108.668 26.9507C106.275 27.1623 106.531 17.6744 110.027 17.4802C113.524 17.2859 116.536 20.4109 117.587 19.3296C118.638 18.2483 121.576 15.7843 122.195 18.8426C122.814 21.9009 120.453 20.9037 119.494 22.7532Z" fill="#EBEBEB"/>
<path d="M99.248 22.4198H81.3574V46.5702H99.248V22.4198Z" fill="#F5F5F5"/>
<path d="M96.7218 44.1439C96.2034 45.1121 83.4018 40.2536 83.7618 39.2158C84.1218 38.178 93.7641 37.2939 94.6137 35.8734C95.4633 34.453 84.3839 32.5513 84.5711 31.5976C84.7583 30.6439 95.2559 31.4846 95.4518 30.525C95.6476 29.5655 84.407 27.8958 85.1558 26.4666C85.9046 25.0375 95.2358 26.0579 96.2697 28.4958C97.3036 30.9338 91.6444 30.7743 91.4831 32.3948C91.3218 34.0153 97.5052 34.3312 96.7218 36.9344C95.9385 39.5376 87.8111 37.6591 88.5686 39.9289C89.326 42.1988 97.701 42.3234 96.7218 44.1439Z" fill="#E6E6E6"/>
<path d="M86.93 44.0164C85.2596 44.4106 83.3271 41.4074 85.3114 42.077C87.2957 42.7467 88.6004 43.6221 86.93 44.0164Z" fill="#EBEBEB"/>
<path d="M94.464 40.2134C94.3805 41.0517 96.8457 40.9038 96.8717 40.2134C96.8976 39.5231 94.5561 39.3403 94.464 40.2134Z" fill="#EBEBEB"/>
<path d="M85.1557 35.1691C86.06 36.6678 88.7125 36.0213 88.6837 35.3285C88.6549 34.6357 84.1822 33.5515 85.1557 35.1691Z" fill="#EBEBEB"/>
<path d="M115.954 85.0671C116.001 84.7772 117.006 77.7707 114.987 75.3559C114.786 75.1012 114.531 74.8944 114.241 74.7506C113.952 74.6067 113.634 74.5293 113.311 74.524C109.235 74.4283 108.677 77.7127 108.674 77.7562L109.155 77.8316C109.172 77.7127 109.656 74.9327 113.299 75.0139C113.554 75.0141 113.806 75.0724 114.035 75.1843C114.265 75.2963 114.466 75.459 114.624 75.6603C116.505 77.9098 115.488 84.9164 115.488 84.9889L115.954 85.0671Z" fill="#EBEBEB"/>
<path d="M116.202 84.7484L116.688 84.7339C116.688 84.6701 116.527 78.2839 119.652 76.9649C122.716 75.672 124.093 78.3303 124.151 78.4433L124.585 78.223C124.568 78.1911 122.952 75.0343 119.465 76.5127C116.029 77.9621 116.193 84.473 116.202 84.7484Z" fill="#EBEBEB"/>
<path d="M116.187 85.2498C116.187 85.1483 116.216 75.0487 118.172 72.0948C120.052 69.2597 123.082 70.596 123.209 70.6453L123.41 70.1989C123.376 70.1844 119.88 68.6306 117.769 71.8165C115.729 74.8922 115.701 84.8208 115.701 85.2411L116.187 85.2498Z" fill="#EBEBEB"/>
<path d="M112.729 74.7676C112.729 74.7676 114.509 75.4256 113.979 76.9852C113.449 78.5448 107.821 81.1103 107.821 81.1103C107.821 81.1103 105.466 78.9361 107.629 75.3995C109.791 71.8629 112.68 73.6515 112.729 74.7676Z" fill="#E0E0E0"/>
<path d="M118.262 71.5643C118.262 71.5643 116.997 71.4281 117.11 70.6541C117.222 69.8801 122.006 67.8856 124.857 71.1092C124.857 71.1092 123.042 74.2515 120.413 74.2979C117.784 74.3443 118.262 71.5643 118.262 71.5643Z" fill="#E0E0E0"/>
<path d="M119.558 76.7387C119.558 76.7387 118.694 76.0314 119.627 75.6835C120.56 75.3357 125.185 75.4371 125.234 80.0318C125.234 80.0318 119.857 80.9305 119.186 79.1767C118.515 77.4228 119.558 76.7387 119.558 76.7387Z" fill="#E0E0E0"/>
<path d="M111.773 94.4478H120.116L121.018 85.2498H110.872L111.773 94.4478Z" fill="#EBEBEB"/>
<path d="M110.428 86.2673H121.464V84.2381H110.428V86.2673Z" fill="#E0E0E0"/>
<path d="M72 108C102.84 108 127.84 106.531 127.84 104.718C127.84 102.906 102.84 101.437 72 101.437C41.1602 101.437 16.1597 102.906 16.1597 104.718C16.1597 106.531 41.1602 108 72 108Z" fill="#F5F5F5"/>
<path d="M71.6608 13.9377H27.6544C26.0002 13.9377 24.6592 15.2875 24.6592 16.9526V101.44C24.6592 103.105 26.0002 104.455 27.6544 104.455H71.6608C73.315 104.455 74.656 103.105 74.656 101.44V16.9526C74.656 15.2875 73.315 13.9377 71.6608 13.9377Z" fill="#263238"/>
<path d="M72.9685 16.9728V101.26C72.9685 101.423 72.9363 101.585 72.8737 101.736C72.8111 101.886 72.7194 102.023 72.6039 102.138C72.4884 102.252 72.3514 102.343 72.2009 102.403C72.0504 102.464 71.8894 102.494 71.7272 102.492H27.4558C27.3085 102.494 27.1622 102.466 27.0258 102.41C26.8894 102.354 26.7658 102.27 26.6622 102.165C26.5587 102.059 26.4774 101.933 26.4232 101.795C26.3691 101.657 26.3432 101.51 26.347 101.362V16.8714C26.3416 16.7405 26.362 16.6099 26.4069 16.487C26.4518 16.3641 26.5203 16.2513 26.6086 16.1552C26.6969 16.059 26.8032 15.9814 26.9215 15.9267C27.0397 15.872 27.1674 15.8413 27.2974 15.8365H38.3653C38.5202 15.8386 38.6708 15.8875 38.7977 15.977C38.9246 16.0664 39.0217 16.1922 39.0766 16.338L39.5374 17.4714C39.5928 17.6167 39.6902 17.7419 39.817 17.8308C39.9438 17.9197 40.0943 17.9682 40.2488 17.97H59.0926C59.2462 17.9689 59.3959 17.9216 59.5226 17.8344C59.6493 17.7471 59.7473 17.6238 59.804 17.4801L60.2619 16.3409C60.3175 16.1948 60.4152 16.0687 60.5425 15.9788C60.6697 15.889 60.8207 15.8394 60.9762 15.8365H71.8827C72.1756 15.8448 72.4534 15.9686 72.6565 16.1811C72.8596 16.3937 72.9716 16.678 72.9685 16.9728Z" fill="#407BFF"/>
<path opacity="0.5" d="M72.9715 21.1009H26.3472V97.7526H72.9715V21.1009Z" fill="white"/>
<path opacity="0.6" d="M31.4854 19.231H32.061V18.4565H31.4854V19.231Z" fill="white"/>
<path opacity="0.6" d="M30.546 19.231H31.1216V18.1984H30.546V19.231Z" fill="white"/>
<path opacity="0.6" d="M29.607 19.231H30.1826V17.9431H29.607V19.231Z" fill="white"/>
<path opacity="0.6" d="M28.668 19.2339H29.2437V17.6888H28.668V19.2339Z" fill="white"/>
<path opacity="0.6" d="M67.6945 18.1787H67.3521V18.9532H67.6945V18.1787Z" fill="white"/>
<path opacity="0.6" d="M67.9283 19.2339H70.647V17.8968H67.9283V19.2339Z" fill="white"/>
<path opacity="0.6" d="M49.6488 15.9441C49.6488 16.0715 49.6113 16.196 49.5411 16.3019C49.4708 16.4077 49.371 16.4903 49.2542 16.539C49.1373 16.5878 49.0088 16.6005 48.8847 16.5757C48.7607 16.5508 48.6468 16.4895 48.5574 16.3994C48.468 16.3094 48.4071 16.1946 48.3824 16.0697C48.3577 15.9448 48.3704 15.8153 48.4188 15.6977C48.4672 15.58 48.5491 15.4795 48.6543 15.4087C48.7594 15.3379 48.883 15.3002 49.0095 15.3002C49.0935 15.2998 49.1769 15.3162 49.2546 15.3484C49.3323 15.3806 49.403 15.4281 49.4624 15.4879C49.5219 15.5478 49.5689 15.6189 49.6009 15.6972C49.6329 15.7755 49.6492 15.8594 49.6488 15.9441Z" fill="white"/>
<path opacity="0.6" d="M50.9438 15.944C50.9438 16.0255 50.9199 16.1051 50.875 16.1728C50.8301 16.2406 50.7662 16.2934 50.6916 16.3245C50.6169 16.3557 50.5347 16.3639 50.4554 16.348C50.3761 16.3321 50.3033 16.2929 50.2462 16.2353C50.189 16.1777 50.1501 16.1043 50.1343 16.0244C50.1185 15.9445 50.1266 15.8617 50.1576 15.7864C50.1885 15.7111 50.2409 15.6468 50.3081 15.6015C50.3753 15.5563 50.4543 15.5321 50.5352 15.5321C50.6435 15.5321 50.7475 15.5755 50.8241 15.6528C50.9008 15.73 50.9438 15.8348 50.9438 15.944Z" fill="white"/>
<path d="M62.4907 25.4983H30.8827C29.6595 25.4983 28.668 26.4964 28.668 27.7275C28.668 28.9587 29.6595 29.9568 30.8827 29.9568H62.4907C63.7138 29.9568 64.7054 28.9587 64.7054 27.7275C64.7054 26.4964 63.7138 25.4983 62.4907 25.4983Z" fill="white"/>
<path d="M61.6329 28.6262C61.4502 28.6257 61.2705 28.5799 61.1096 28.4928C60.9487 28.4057 60.8116 28.2801 60.7105 28.127C60.6093 27.9739 60.5472 27.798 60.5296 27.615C60.512 27.432 60.5395 27.2475 60.6096 27.0777C60.6797 26.9079 60.7904 26.7581 60.9317 26.6416C61.073 26.5251 61.2406 26.4455 61.4198 26.4097C61.599 26.3739 61.7842 26.3831 61.959 26.4365C62.1338 26.49 62.2928 26.5859 62.422 26.7159C62.5777 26.8725 62.6837 27.0722 62.7265 27.2896C62.7694 27.507 62.7471 27.7322 62.6626 27.9369C62.5781 28.1415 62.4351 28.3162 62.2518 28.439C62.0684 28.5617 61.853 28.6269 61.6329 28.6262ZM61.6329 26.6782C61.4707 26.6804 61.3127 26.7306 61.1786 26.8225C61.0446 26.9144 60.9403 27.044 60.8789 27.1951C60.8175 27.3463 60.8016 27.5122 60.8333 27.6724C60.8649 27.8325 60.9427 27.9798 61.0569 28.0957C61.1531 28.1918 61.2713 28.2625 61.4011 28.3016C61.5309 28.3406 61.6683 28.3469 61.8011 28.3197C61.9339 28.2926 62.058 28.2328 62.1624 28.1459C62.2667 28.0589 62.3482 27.9473 62.3995 27.8211C62.4508 27.6949 62.4703 27.5578 62.4564 27.4222C62.4425 27.2865 62.3956 27.1564 62.3198 27.0434C62.2439 26.9303 62.1416 26.8378 62.0218 26.7742C61.902 26.7105 61.7684 26.6775 61.6329 26.6782Z" fill="#407BFF"/>
<path d="M63.0318 29.0646C62.9935 29.0644 62.9566 29.05 62.9282 29.024L62.2116 28.2989C62.1978 28.2859 62.1868 28.2701 62.1793 28.2527C62.1718 28.2352 62.168 28.2164 62.168 28.1974C62.168 28.1783 62.1718 28.1595 62.1793 28.142C62.1868 28.1246 62.1978 28.1089 62.2116 28.0958C62.225 28.0822 62.2409 28.0714 62.2584 28.0641C62.2759 28.0567 62.2948 28.0529 62.3138 28.0529C62.3328 28.0529 62.3516 28.0567 62.3691 28.0641C62.3866 28.0714 62.4025 28.0822 62.4159 28.0958L63.1326 28.8181C63.1461 28.8316 63.1568 28.8476 63.1641 28.8653C63.1714 28.8829 63.1751 28.9019 63.1751 28.921C63.1751 28.9402 63.1714 28.9592 63.1641 28.9768C63.1568 28.9945 63.1461 29.0105 63.1326 29.024C63.1049 29.0493 63.0692 29.0637 63.0318 29.0646Z" fill="#407BFF"/>
<path opacity="0.2" d="M69.8494 25.4983H66.7275C66.3664 25.4983 66.0737 25.7929 66.0737 26.1563V29.2987C66.0737 29.6621 66.3664 29.9568 66.7275 29.9568H69.8494C70.2105 29.9568 70.5032 29.6621 70.5032 29.2987V26.1563C70.5032 25.7929 70.2105 25.4983 69.8494 25.4983Z" fill="black"/>
<path d="M67.5331 26.6697C67.5331 26.7271 67.5163 26.7832 67.4846 26.8309C67.453 26.8786 67.4081 26.9157 67.3555 26.9377C67.3029 26.9596 67.245 26.9654 67.1892 26.9542C67.1333 26.943 67.0821 26.9154 67.0418 26.8748C67.0016 26.8342 66.9742 26.7826 66.9631 26.7263C66.9519 26.67 66.9576 26.6117 66.9794 26.5587C67.0012 26.5057 67.0381 26.4604 67.0854 26.4285C67.1328 26.3967 67.1884 26.3797 67.2453 26.3797C67.3217 26.3797 67.3949 26.4102 67.4488 26.4646C67.5028 26.519 67.5331 26.5928 67.5331 26.6697Z" fill="white"/>
<path d="M69.4342 28.0237C69.5963 28.0237 69.7278 27.8912 69.7278 27.7278C69.7278 27.5644 69.5963 27.432 69.4342 27.432C69.2721 27.432 69.1406 27.5644 69.1406 27.7278C69.1406 27.8912 69.2721 28.0237 69.4342 28.0237Z" fill="white"/>
<path d="M67.3522 29.2151C67.5143 29.2151 67.6457 29.0826 67.6457 28.9192C67.6457 28.7558 67.5143 28.6233 67.3522 28.6233C67.19 28.6233 67.0586 28.7558 67.0586 28.9192C67.0586 29.0826 67.19 29.2151 67.3522 29.2151Z" fill="white"/>
<path d="M67.3871 28.9828L67.3151 28.8581L69.2792 27.7305L67.2085 26.7188L67.2719 26.5883L69.5874 27.7218L67.3871 28.9828Z" fill="white"/>
<path opacity="0.6" d="M72.9715 33.8964H26.3472V97.7525H72.9715V33.8964Z" fill="white"/>
<path opacity="0.2" d="M49.4826 48.5209L52.7593 45.2227L49.4826 41.9246L46.2059 45.2227L49.4826 48.5209Z" fill="white"/>
<path opacity="0.2" d="M31.6834 50.5011H39.4652C40.2112 50.5011 40.8159 49.8924 40.8159 49.1415V41.3088C40.8159 40.5579 40.2112 39.9492 39.4652 39.9492H31.6834C30.9375 39.9492 30.3327 40.5579 30.3327 41.3088V49.1415C30.3327 49.8924 30.9375 50.5011 31.6834 50.5011Z" fill="black"/>
<path opacity="0.2" d="M30.8968 53.6008H40.251C40.4038 53.6008 40.5503 53.5396 40.6583 53.4308C40.7664 53.322 40.827 53.1745 40.827 53.0206C40.827 52.8668 40.7664 52.7192 40.6583 52.6104C40.5503 52.5016 40.4038 52.4405 40.251 52.4405H30.8968C30.744 52.4405 30.5975 52.5016 30.4895 52.6104C30.3815 52.7192 30.3208 52.8668 30.3208 53.0206C30.3208 53.1745 30.3815 53.322 30.4895 53.4308C30.5975 53.5396 30.744 53.6008 30.8968 53.6008Z" fill="black"/>
<path opacity="0.2" d="M45.5912 70.2132H53.3729C54.1189 70.2132 54.7236 69.6045 54.7236 68.8537V61.0209C54.7236 60.2701 54.1189 59.6614 53.3729 59.6614H45.5912C44.8452 59.6614 44.2404 60.2701 44.2404 61.0209V68.8537C44.2404 69.6045 44.8452 70.2132 45.5912 70.2132Z" fill="black"/>
<path opacity="0.2" d="M44.805 73.3129H54.1448C54.2976 73.3129 54.4441 73.2518 54.5521 73.143C54.6602 73.0342 54.7208 72.8867 54.7208 72.7328C54.7208 72.5789 54.6602 72.4314 54.5521 72.3226C54.4441 72.2138 54.2976 72.1527 54.1448 72.1527H44.805C44.6522 72.1527 44.5057 72.2138 44.3977 72.3226C44.2897 72.4314 44.229 72.5789 44.229 72.7328C44.229 72.8867 44.2897 73.0342 44.3977 73.143C44.5057 73.2518 44.6522 73.3129 44.805 73.3129Z" fill="black"/>
<path opacity="0.2" d="M31.6834 70.2132H39.4652C40.2112 70.2132 40.8159 69.6045 40.8159 68.8537V61.0209C40.8159 60.2701 40.2112 59.6614 39.4652 59.6614H31.6834C30.9375 59.6614 30.3327 60.2701 30.3327 61.0209V68.8537C30.3327 69.6045 30.9375 70.2132 31.6834 70.2132Z" fill="black"/>
<path opacity="0.2" d="M30.8968 73.3129H40.251C40.4038 73.3129 40.5503 73.2518 40.6583 73.143C40.7664 73.0342 40.827 72.8867 40.827 72.7328C40.827 72.5789 40.7664 72.4314 40.6583 72.3226C40.5503 72.2138 40.4038 72.1527 40.251 72.1527H30.8968C30.744 72.1527 30.5975 72.2138 30.4895 72.3226C30.3815 72.4314 30.3208 72.5789 30.3208 72.7328C30.3208 72.8867 30.3815 73.0342 30.4895 73.143C30.5975 73.2518 30.744 73.3129 30.8968 73.3129Z" fill="black"/>
<path opacity="0.2" d="M33.8661 61.9602H37.2818L38.9867 64.9344L37.2818 67.9116H33.8661L32.1611 64.9344L33.8661 61.9602Z" fill="white"/>
<path opacity="0.2" d="M52.2294 62.972V67.1956H46.7314L52.2294 62.972Z" fill="white"/>
<path opacity="0.2" d="M59.4984 50.5011H67.2801C68.0261 50.5011 68.6309 49.8924 68.6309 49.1415V41.3088C68.6309 40.5579 68.0261 39.9492 67.2801 39.9492H59.4984C58.7524 39.9492 58.1477 40.5579 58.1477 41.3088V49.1415C58.1477 49.8924 58.7524 50.5011 59.4984 50.5011Z" fill="black"/>
<path opacity="0.2" d="M58.7122 53.6008H68.0636C68.2164 53.6008 68.3629 53.5396 68.4709 53.4308C68.5789 53.322 68.6396 53.1745 68.6396 53.0206C68.6396 52.8668 68.5789 52.7192 68.4709 52.6104C68.3629 52.5016 68.2164 52.4405 68.0636 52.4405H58.7122C58.5595 52.4405 58.413 52.5016 58.3049 52.6104C58.1969 52.7192 58.1362 52.8668 58.1362 53.0206C58.1362 53.1745 58.1969 53.322 58.3049 53.4308C58.413 53.5396 58.5595 53.6008 58.7122 53.6008Z" fill="black"/>
<path opacity="0.2" d="M64.2259 47.9696C65.8065 47.5941 66.7854 46 66.4123 44.4091C66.0393 42.8182 64.4556 41.8329 62.875 42.2084C61.2945 42.5839 60.3156 44.178 60.6886 45.7689C61.0617 47.3598 62.6454 48.3451 64.2259 47.9696Z" fill="white"/>
<path opacity="0.2" d="M34.304 42.1263C34.304 42.1263 38.336 46.7123 38.2093 46.7123C38.0826 46.7123 32.936 47.7849 32.936 47.7849L34.304 42.1263Z" fill="white"/>
<path opacity="0.2" d="M45.5912 50.5011H53.3729C54.1189 50.5011 54.7236 49.8924 54.7236 49.1415V41.3088C54.7236 40.5579 54.1189 39.9492 53.3729 39.9492H45.5912C44.8452 39.9492 44.2404 40.5579 44.2404 41.3088V49.1415C44.2404 49.8924 44.8452 50.5011 45.5912 50.5011Z" fill="black"/>
<path opacity="0.2" d="M44.805 53.6008H54.1448C54.2976 53.6008 54.4441 53.5396 54.5521 53.4308C54.6602 53.322 54.7208 53.1745 54.7208 53.0206C54.7208 52.8668 54.6602 52.7192 54.5521 52.6104C54.4441 52.5016 54.2976 52.4405 54.1448 52.4405H44.805C44.6522 52.4405 44.5057 52.5016 44.3977 52.6104C44.2897 52.7192 44.229 52.8668 44.229 53.0206C44.229 53.1745 44.2897 53.322 44.3977 53.4308C44.5057 53.5396 44.6522 53.6008 44.805 53.6008Z" fill="black"/>
<g opacity="0.2">
<path opacity="0.2" d="M32.0454 27.7339V28.2212H31.9331V27.7455C31.9385 27.7103 31.9358 27.6744 31.9254 27.6404C31.915 27.6064 31.897 27.5753 31.8729 27.5493C31.8488 27.5233 31.8192 27.5032 31.7862 27.4904C31.7533 27.4777 31.7179 27.4727 31.6827 27.4757C31.6437 27.4757 31.605 27.4836 31.5691 27.4991C31.5333 27.5146 31.5009 27.5372 31.4739 27.5657C31.447 27.5942 31.4261 27.6279 31.4125 27.6648C31.399 27.7017 31.393 27.741 31.3949 27.7803V28.2212H31.2798V27.0348H31.3949V27.5395C31.4287 27.4886 31.4752 27.4476 31.5298 27.4206C31.5844 27.3936 31.6451 27.3816 31.7057 27.3858C31.7516 27.3827 31.7976 27.3896 31.8406 27.4061C31.8836 27.4226 31.9225 27.4483 31.9548 27.4813C31.987 27.5143 32.0118 27.554 32.0274 27.5976C32.0431 27.6412 32.0492 27.6877 32.0454 27.7339Z" fill="black"/>
<path opacity="0.2" d="M32.7916 28.1688C32.7426 28.2103 32.68 28.232 32.616 28.2297C32.5833 28.2334 32.5501 28.2296 32.519 28.2186C32.4879 28.2077 32.4596 28.1899 32.4362 28.1666C32.4128 28.1432 32.3948 28.1149 32.3836 28.0837C32.3724 28.0525 32.3682 28.0191 32.3714 27.9861V27.4756H32.2246V27.3799H32.3714V27.1971H32.4836V27.3799H32.7398V27.4756H32.4836V27.9774C32.481 27.9977 32.4828 28.0184 32.4892 28.0379C32.4955 28.0574 32.5061 28.0752 32.5203 28.0899C32.5344 28.1047 32.5516 28.1161 32.5707 28.1232C32.5897 28.1303 32.6102 28.1331 32.6304 28.1311C32.6756 28.1324 32.7196 28.1169 32.7542 28.0876L32.7916 28.1688Z" fill="black"/>
<path opacity="0.2" d="M33.4078 28.1688C33.3567 28.2087 33.2939 28.2302 33.2293 28.2297C33.1967 28.2334 33.1636 28.2297 33.1326 28.2187C33.1016 28.2078 33.0735 28.19 33.0503 28.1666C33.027 28.1431 33.0093 28.1148 32.9985 28.0835C32.9876 28.0523 32.9839 28.019 32.9876 27.9861V27.4756H32.8379V27.3799H32.9876V27.1971H33.1199V27.3799H33.3732V27.4756H33.1199V27.9774C33.1168 27.9976 33.1182 28.0182 33.1242 28.0377C33.1302 28.0572 33.1405 28.0751 33.1544 28.0899C33.1683 28.1048 33.1854 28.1162 33.2044 28.1234C33.2233 28.1305 33.2437 28.1332 33.2638 28.1311C33.309 28.1324 33.353 28.1169 33.3876 28.0876L33.4078 28.1688Z" fill="black"/>
<path opacity="0.2" d="M34.4649 27.8004C34.4681 27.8566 34.4597 27.9129 34.4401 27.9657C34.4206 28.0185 34.3904 28.0666 34.3514 28.1069C34.3124 28.1473 34.2655 28.1791 34.2137 28.2002C34.1619 28.2213 34.1063 28.2314 34.0504 28.2296C33.988 28.2316 33.9262 28.2175 33.8708 28.1885C33.8153 28.1596 33.7682 28.1168 33.7338 28.0643V28.5313H33.6216V27.3711H33.7281V27.5393C33.7617 27.4841 33.8092 27.4389 33.8659 27.4083C33.9225 27.3778 33.9862 27.3629 34.0504 27.3653C34.1068 27.3635 34.1629 27.3737 34.2152 27.3952C34.2674 27.4166 34.3146 27.4489 34.3536 27.4899C34.3927 27.5309 34.4228 27.5798 34.442 27.6332C34.4611 27.6867 34.4689 27.7437 34.4649 27.8004ZM34.3526 27.8004C34.3515 27.7387 34.3323 27.6787 34.2975 27.6279C34.2626 27.5772 34.2137 27.5379 34.1568 27.5151C34.0999 27.4923 34.0376 27.4869 33.9777 27.4996C33.9178 27.5124 33.8629 27.5427 33.82 27.5867C33.7771 27.6307 33.7481 27.6865 33.7366 27.7472C33.725 27.8078 33.7315 27.8704 33.7552 27.9273C33.7789 27.9842 33.8187 28.0328 33.8697 28.067C33.9207 28.1012 33.9806 28.1194 34.0418 28.1194C34.0832 28.1198 34.1243 28.1118 34.1626 28.0958C34.2008 28.0799 34.2355 28.0563 34.2645 28.0265C34.2936 27.9967 34.3163 27.9613 34.3314 27.9225C34.3466 27.8836 34.3538 27.8421 34.3526 27.8004Z" fill="black"/>
<path opacity="0.2" d="M34.5801 28.1195L34.6319 28.0296C34.7158 28.0905 34.8163 28.1239 34.9197 28.1253C35.078 28.1253 35.1442 28.0702 35.1442 27.986C35.1442 27.7685 34.6031 27.9396 34.6031 27.609C34.6031 27.4697 34.7211 27.3682 34.9312 27.3682C35.0323 27.3684 35.1316 27.3954 35.219 27.4465L35.1701 27.5394C35.0971 27.4898 35.0106 27.4645 34.9226 27.4668C34.7729 27.4668 34.7067 27.5249 34.7067 27.6061C34.7067 27.8323 35.2478 27.6612 35.2478 27.9831C35.2478 28.1282 35.1212 28.2239 34.9024 28.2239C34.787 28.2224 34.6747 28.1861 34.5801 28.1195Z" fill="black"/>
<path opacity="0.2" d="M35.4014 27.461C35.401 27.4497 35.4029 27.4385 35.4069 27.4279C35.4109 27.4174 35.417 27.4078 35.4248 27.3997C35.4326 27.3915 35.4419 27.3851 35.4523 27.3807C35.4626 27.3763 35.4737 27.374 35.4849 27.374C35.5078 27.374 35.5297 27.3832 35.5459 27.3995C35.5621 27.4158 35.5712 27.4379 35.5712 27.461C35.5712 27.4841 35.5621 27.5062 35.5459 27.5225C35.5297 27.5389 35.5078 27.548 35.4849 27.548C35.4737 27.548 35.4626 27.5458 35.4523 27.5414C35.4419 27.537 35.4326 27.5305 35.4248 27.5224C35.417 27.5143 35.4109 27.5046 35.4069 27.4941C35.4029 27.4836 35.401 27.4723 35.4014 27.461ZM35.4014 28.1426C35.401 28.1314 35.4029 28.1201 35.4069 28.1096C35.4109 28.099 35.417 28.0894 35.4248 28.0813C35.4326 28.0732 35.4419 28.0667 35.4523 28.0623C35.4626 28.0579 35.4737 28.0556 35.4849 28.0556C35.4963 28.0552 35.5077 28.0572 35.5184 28.0614C35.5291 28.0657 35.5387 28.0721 35.5468 28.0802C35.5549 28.0884 35.5613 28.0981 35.5655 28.1089C35.5697 28.1196 35.5716 28.1311 35.5712 28.1426C35.5712 28.1657 35.5621 28.1879 35.5459 28.2042C35.5297 28.2205 35.5078 28.2297 35.4849 28.2297C35.4737 28.2297 35.4626 28.2274 35.4523 28.223C35.4419 28.2186 35.4326 28.2121 35.4248 28.204C35.417 28.1959 35.4109 28.1863 35.4069 28.1757C35.4029 28.1652 35.401 28.1539 35.4014 28.1426Z" fill="black"/>
<path opacity="0.2" d="M36.2098 26.8754H36.3106L35.7896 28.3799H35.686L36.2098 26.8754Z" fill="black"/>
<path opacity="0.2" d="M36.6362 26.8754H36.7398L36.216 28.3799H36.1152L36.6362 26.8754Z" fill="black"/>
<path opacity="0.2" d="M38.1112 27.7336V28.2209H37.9989V27.7452C37.9989 27.5683 37.9096 27.4755 37.7598 27.4755C37.7199 27.4721 37.6797 27.4778 37.6423 27.4921C37.6048 27.5064 37.571 27.529 37.5434 27.5582C37.5157 27.5875 37.495 27.6226 37.4826 27.6609C37.4702 27.6993 37.4665 27.74 37.4718 27.78V28.2209H37.3595V27.7452C37.3595 27.5683 37.2702 27.4755 37.1176 27.4755C37.0778 27.4726 37.0379 27.4787 37.0007 27.4932C36.9634 27.5077 36.9299 27.5303 36.9023 27.5594C36.8748 27.5885 36.854 27.6234 36.8415 27.6615C36.8289 27.6997 36.8248 27.7401 36.8296 27.78V28.2209H36.7173V27.3798H36.8267V27.5393C36.8582 27.4871 36.9034 27.4446 36.9572 27.4165C37.011 27.3884 37.0715 27.3756 37.132 27.3798C37.1924 27.375 37.2527 27.3895 37.3044 27.4213C37.3561 27.4531 37.3966 27.5004 37.42 27.5567C37.4538 27.5001 37.5021 27.4537 37.5599 27.4226C37.6177 27.3914 37.6828 27.3766 37.7483 27.3798C37.7968 27.3716 37.8465 27.375 37.8934 27.3897C37.9403 27.4044 37.9831 27.43 38.0184 27.4645C38.0537 27.4989 38.0805 27.5412 38.0966 27.5879C38.1127 27.6347 38.1177 27.6846 38.1112 27.7336Z" fill="black"/>
<path opacity="0.2" d="M39.1038 27.3798L38.6865 28.3224C38.6174 28.4878 38.5282 28.54 38.3987 28.54C38.323 28.542 38.2496 28.5139 38.1943 28.4617L38.249 28.3776C38.2683 28.3979 38.2915 28.4141 38.3173 28.4251C38.343 28.4361 38.3707 28.4416 38.3987 28.4414C38.4735 28.4414 38.5253 28.4066 38.5714 28.3021L38.6088 28.2209L38.2375 27.3798H38.3526L38.6692 28.0962L38.9829 27.3798H39.1038Z" fill="black"/>
<path opacity="0.2" d="M39.2661 27.0348H39.3784V28.2212H39.2661V27.0348Z" fill="black"/>
<path opacity="0.2" d="M39.6665 27.1161C39.6673 27.0943 39.6764 27.0736 39.6919 27.0585C39.7075 27.0433 39.7283 27.0349 39.75 27.0349C39.7604 27.0345 39.7708 27.0362 39.7806 27.04C39.7904 27.0437 39.7993 27.0494 39.8068 27.0568C39.8143 27.0641 39.8203 27.0728 39.8244 27.0825C39.8285 27.0922 39.8306 27.1027 39.8306 27.1132C39.8309 27.1241 39.8291 27.135 39.8253 27.1452C39.8214 27.1554 39.8155 27.1647 39.808 27.1725C39.8005 27.1804 39.7915 27.1866 39.7815 27.1909C39.7715 27.1951 39.7608 27.1973 39.75 27.1973C39.7283 27.1973 39.7075 27.1889 39.6919 27.1737C39.6764 27.1586 39.6673 27.1379 39.6665 27.1161ZM39.6924 27.38H39.8047V28.2212H39.6924V27.38Z" fill="black"/>
<path opacity="0.2" d="M40.8955 27.7337V28.221H40.7833V27.7453C40.7886 27.7101 40.786 27.6742 40.7756 27.6402C40.7651 27.6062 40.7472 27.5751 40.7231 27.5491C40.699 27.5231 40.6693 27.503 40.6364 27.4902C40.6034 27.4775 40.568 27.4725 40.5329 27.4755C40.4938 27.4755 40.4552 27.4834 40.4193 27.4989C40.3834 27.5144 40.351 27.537 40.3241 27.5655C40.2972 27.594 40.2763 27.6277 40.2627 27.6646C40.2491 27.7015 40.2431 27.7408 40.2451 27.7801V28.221H40.1328V27.3798H40.2422V27.5393C40.2754 27.4859 40.3224 27.4425 40.3782 27.4139C40.4339 27.3853 40.4963 27.3725 40.5588 27.3769C40.6052 27.3741 40.6517 27.3815 40.695 27.3987C40.7383 27.4159 40.7774 27.4424 40.8094 27.4764C40.8415 27.5103 40.8658 27.551 40.8807 27.5954C40.8956 27.6399 40.9006 27.687 40.8955 27.7337Z" fill="black"/>
<path opacity="0.2" d="M41.5036 27.8006L41.3078 27.9804V28.2212H41.1841V27.0348H41.2992V27.8296L41.7971 27.3713H41.9353L41.5784 27.7165L41.9698 28.2125H41.8317L41.5036 27.8006Z" fill="black"/>
<path opacity="0.2" d="M42.474 26.8754H42.5776L42.048 28.3799H41.9473L42.474 26.8754Z" fill="black"/>
</g>
<path opacity="0.2" d="M81.8356 39.0071V63.3575C81.8356 63.7274 81.6896 64.082 81.4299 64.3435C81.1701 64.605 80.8177 64.7519 80.4503 64.7519H34.9463C34.5789 64.7519 34.2266 64.605 33.9668 64.3435C33.707 64.082 33.561 63.7274 33.561 63.3575V39.0071C33.561 38.8241 33.5969 38.643 33.6665 38.4739C33.7362 38.3049 33.8383 38.1514 33.9669 38.0222C34.0956 37.8929 34.2484 37.7905 34.4164 37.7207C34.5845 37.651 34.7645 37.6153 34.9463 37.6156H80.4503C80.6321 37.6153 80.8122 37.651 80.9802 37.7207C81.1483 37.7905 81.301 37.8929 81.4297 38.0222C81.5583 38.1514 81.6604 38.3049 81.7301 38.4739C81.7997 38.643 81.8356 38.8241 81.8356 39.0071Z" fill="black"/>
<path d="M83.8517 36.6881V61.0385C83.8517 61.2216 83.8159 61.4029 83.7463 61.5721C83.6766 61.7413 83.5746 61.895 83.446 62.0245C83.3173 62.1539 83.1646 62.2566 82.9965 62.3267C82.8285 62.3968 82.6483 62.4328 82.4664 62.4328H36.9624C36.595 62.4328 36.2427 62.2859 35.9829 62.0245C35.7231 61.763 35.5771 61.4083 35.5771 61.0385V36.6881C35.5771 36.5051 35.613 36.3239 35.6827 36.1549C35.7523 35.9859 35.8544 35.8324 35.9831 35.7031C36.1117 35.5739 36.2645 35.4714 36.4325 35.4017C36.6006 35.3319 36.7806 35.2962 36.9624 35.2966H82.4664C82.6482 35.2962 82.8283 35.3319 82.9963 35.4017C83.1644 35.4714 83.3171 35.5739 83.4458 35.7031C83.5745 35.8324 83.6765 35.9859 83.7462 36.1549C83.8159 36.3239 83.8517 36.5051 83.8517 36.6881Z" fill="#407BFF"/>
<path opacity="0.5" d="M83.8517 40.0043V61.0559C83.8517 61.239 83.8159 61.4203 83.7463 61.5895C83.6766 61.7586 83.5746 61.9124 83.446 62.0418C83.3173 62.1713 83.1646 62.274 82.9965 62.3441C82.8285 62.4142 82.6483 62.4502 82.4664 62.4502H36.9624C36.595 62.4502 36.2427 62.3033 35.9829 62.0418C35.7231 61.7803 35.5771 61.4257 35.5771 61.0559V40.0043H83.8517Z" fill="white"/>
<path d="M71.243 43.7526H38.4888V49.417H71.243V43.7526Z" fill="white"/>
<path d="M41.8873 46.5123V47.3211H41.6339V46.5413C41.6339 46.2514 41.4985 46.1297 41.2595 46.1297C41.1983 46.1249 41.1368 46.1339 41.0794 46.156C41.0221 46.1781 40.9703 46.2127 40.9279 46.2573C40.8855 46.302 40.8534 46.3556 40.8341 46.4142C40.8147 46.4728 40.8085 46.535 40.8159 46.5964V47.3211H40.5625V45.3528H40.8159V46.1152C40.8764 46.0442 40.9522 45.9882 41.0376 45.9515C41.123 45.9148 41.2157 45.8984 41.3084 45.9036C41.3884 45.8969 41.4688 45.9082 41.5439 45.9368C41.6189 45.9655 41.6866 46.0106 41.7421 46.0689C41.7976 46.1273 41.8394 46.1974 41.8646 46.2741C41.8897 46.3508 41.8974 46.4322 41.8873 46.5123Z" fill="#263238"/>
<path d="M43.1396 47.2515C43.0526 47.3196 42.9446 47.3545 42.8345 47.35C42.7753 47.3569 42.7153 47.3503 42.6589 47.3306C42.6026 47.3109 42.5514 47.2787 42.5091 47.2364C42.4668 47.1941 42.4345 47.1427 42.4146 47.0861C42.3947 47.0295 42.3877 46.9691 42.3942 46.9094V46.1383H42.1553V45.9296H42.3942V45.6223H42.6446V45.9296H43.0446V46.1383H42.6446V46.9007C42.6401 46.9313 42.6426 46.9626 42.6518 46.9921C42.661 47.0216 42.6767 47.0486 42.6977 47.0712C42.7188 47.0938 42.7446 47.1113 42.7732 47.1224C42.8019 47.1335 42.8327 47.138 42.8633 47.1355C42.9351 47.1371 43.0053 47.1135 43.0619 47.0688L43.1396 47.2515Z" fill="#263238"/>
<path d="M44.196 47.2515C44.1086 47.3187 44.0009 47.3535 43.8909 47.35C43.8316 47.3568 43.7715 47.3502 43.7151 47.3305C43.6586 47.3108 43.6072 47.2787 43.5647 47.2364C43.5222 47.1942 43.4897 47.1429 43.4694 47.0863C43.4492 47.0297 43.4417 46.9693 43.4477 46.9094V46.1383H43.2002V45.9296H43.4362V45.6223H43.6895V45.9296H44.0895V46.1383H43.6895V46.9007C43.685 46.9313 43.6875 46.9626 43.6967 46.9921C43.7059 47.0216 43.7216 47.0486 43.7427 47.0712C43.7637 47.0938 43.7895 47.1113 43.8181 47.1224C43.8468 47.1335 43.8776 47.138 43.9082 47.1355C43.98 47.1366 44.05 47.1131 44.1068 47.0688L44.196 47.2515Z" fill="#263238"/>
<path d="M45.9482 46.6167C45.9535 46.7118 45.939 46.8069 45.9055 46.896C45.8721 46.9851 45.8204 47.0661 45.7539 47.1338C45.6875 47.2016 45.6076 47.2545 45.5195 47.2893C45.4314 47.324 45.3371 47.3398 45.2426 47.3356C45.1491 47.3401 45.0559 47.3216 44.9711 47.2817C44.8863 47.2418 44.8124 47.1817 44.7559 47.1066V47.8313H44.5024V45.9123H44.7444V46.1355C44.8024 46.0588 44.878 45.9973 44.9648 45.9564C45.0516 45.9156 45.1469 45.8964 45.2426 45.9007C45.337 45.8961 45.4312 45.9115 45.5193 45.9459C45.6074 45.9803 45.6873 46.033 45.7538 46.1005C45.8204 46.168 45.8721 46.2489 45.9055 46.3378C45.939 46.4267 45.9536 46.5218 45.9482 46.6167ZM45.6919 46.6167C45.6874 46.5244 45.6561 46.4354 45.6018 46.3608C45.5476 46.2862 45.4728 46.2293 45.3867 46.197C45.3006 46.1648 45.207 46.1587 45.1175 46.1795C45.0281 46.2002 44.9466 46.247 44.8832 46.3139C44.8198 46.3808 44.7774 46.4649 44.761 46.5559C44.7447 46.6469 44.7553 46.7407 44.7914 46.8257C44.8275 46.9107 44.8876 46.9831 44.9642 47.0341C45.0408 47.0851 45.1306 47.1123 45.2224 47.1124C45.2864 47.1138 45.35 47.1017 45.4091 47.077C45.4682 47.0522 45.5216 47.0154 45.5657 46.9687C45.6099 46.9221 45.6439 46.8667 45.6656 46.8061C45.6874 46.7455 45.6963 46.681 45.6919 46.6167Z" fill="#263238"/>
<path d="M46.1206 47.1703L46.2271 46.9702C46.3729 47.065 46.5428 47.1154 46.7164 47.1152C46.9495 47.1152 47.0474 47.0456 47.0474 46.9239C47.0474 46.6108 46.1667 46.8833 46.1667 46.3238C46.1667 46.0716 46.3911 45.9035 46.7423 45.9035C46.919 45.9002 47.0935 45.9431 47.2488 46.0281L47.1423 46.231C47.0214 46.1558 46.8815 46.1175 46.7394 46.1209C46.5178 46.1209 46.4113 46.202 46.4113 46.3122C46.4113 46.6456 47.2949 46.3731 47.2949 46.921C47.2949 47.1732 47.0617 47.3355 46.6933 47.3355C46.4903 47.3393 46.2908 47.2818 46.1206 47.1703Z" fill="#263238"/>
<path d="M47.5001 46.0919C47.4993 46.068 47.5034 46.0443 47.5121 46.0221C47.5207 46 47.5339 45.9798 47.5506 45.963C47.5673 45.9461 47.5873 45.9329 47.6093 45.9242C47.6313 45.9154 47.6549 45.9113 47.6785 45.9121C47.7018 45.9117 47.725 45.9161 47.7465 45.9251C47.768 45.934 47.7875 45.9473 47.8037 45.9642C47.8199 45.9811 47.8324 46.0011 47.8406 46.0231C47.8488 46.045 47.8524 46.0684 47.8512 46.0919C47.852 46.1153 47.8481 46.1387 47.8398 46.1607C47.8315 46.1826 47.819 46.2026 47.8029 46.2196C47.7868 46.2366 47.7676 46.2502 47.7462 46.2597C47.7249 46.2691 47.7019 46.2741 47.6785 46.2745C47.6549 46.2745 47.6314 46.2698 47.6096 46.2605C47.5878 46.2513 47.568 46.2378 47.5513 46.2208C47.5347 46.2038 47.5217 46.1837 47.5129 46.1615C47.5041 46.1394 47.4997 46.1157 47.5001 46.0919ZM47.5001 47.1615C47.4993 47.1377 47.5034 47.114 47.5121 47.0918C47.5207 47.0697 47.5339 47.0495 47.5506 47.0327C47.5673 47.0158 47.5873 47.0026 47.6093 46.9939C47.6313 46.9851 47.6549 46.981 47.6785 46.9818C47.7018 46.9814 47.725 46.9858 47.7465 46.9948C47.768 47.0037 47.7875 47.017 47.8037 47.0339C47.8199 47.0507 47.8324 47.0708 47.8406 47.0927C47.8488 47.1147 47.8524 47.1381 47.8512 47.1615C47.8524 47.1851 47.8488 47.2087 47.8407 47.2308C47.8325 47.2529 47.82 47.2731 47.8038 47.2902C47.7877 47.3073 47.7682 47.3209 47.7467 47.3302C47.7252 47.3394 47.702 47.3442 47.6785 47.3442C47.654 47.3447 47.6296 47.34 47.607 47.3304C47.5843 47.3208 47.5639 47.3065 47.5471 47.2885C47.5303 47.2704 47.5174 47.249 47.5093 47.2257C47.5012 47.2023 47.4981 47.1775 47.5001 47.1529V47.1615Z" fill="#263238"/>
<path d="M48.8961 45.089H49.1235L48.26 47.5849H48.0298L48.8961 45.089Z" fill="#263238"/>
<path d="M49.6457 45.089H49.873L49.0096 47.5849H48.7822L49.6457 45.089Z" fill="#263238"/>
<path d="M51.7631 47.3211V45.9674L51.0949 47.095H50.9768L50.3115 45.9761V47.3211H50.0581V45.4659H50.2741L51.0431 46.7703L51.8005 45.4659H52.0165V47.3211H51.7631Z" fill="#263238"/>
<path d="M53.2802 46.6718V47.3153H53.0181V46.6718L52.2866 45.463H52.5746L53.1506 46.4399L53.7439 45.463H54.006L53.2802 46.6718Z" fill="#263238"/>
<path d="M54.2393 45.4659H54.504V47.0892H55.4999V47.3211H54.2393V45.4659Z" fill="#263238"/>
<path d="M55.8032 45.4659H56.068V47.3211H55.8032V45.4659Z" fill="#263238"/>
<path d="M58.2051 45.4659V47.3211H57.9891L56.8832 45.9355V47.3211H56.6211V45.4659H56.8371L57.9401 46.8486V45.4659H58.2051Z" fill="#263238"/>
<path d="M59.3572 46.495L59.0203 46.8399V47.3211H58.7524V45.4659H59.0145V46.5008L60.0168 45.4659H60.3048L59.5185 46.3007L60.3537 47.3211H60.0456L59.3572 46.495Z" fill="#263238"/>
<path d="M61.1881 45.089H61.4155L60.552 47.5849H60.3218L61.1881 45.089Z" fill="#263238"/>
<path d="M39.5254 37.9462H39.6809V38.5259C39.5244 38.6571 39.3257 38.7261 39.1222 38.7202C39.0171 38.7266 38.9117 38.7114 38.8127 38.6753C38.7136 38.6393 38.6229 38.5832 38.5462 38.5106C38.4695 38.4379 38.4084 38.3503 38.3666 38.2529C38.3248 38.1556 38.3032 38.0507 38.3032 37.9447C38.3032 37.8387 38.3248 37.7338 38.3666 37.6365C38.4084 37.5392 38.4695 37.4515 38.5462 37.3788C38.6229 37.3062 38.7136 37.2501 38.8127 37.2141C38.9117 37.178 39.0171 37.1628 39.1222 37.1693C39.2283 37.1624 39.3346 37.1785 39.4339 37.2165C39.5333 37.2545 39.6234 37.3135 39.6982 37.3896L39.5974 37.491C39.5379 37.4311 39.4668 37.3843 39.3885 37.3533C39.3102 37.3224 39.2264 37.3081 39.1423 37.3113C39.0561 37.3054 38.9696 37.3174 38.8882 37.3466C38.8068 37.3758 38.7322 37.4215 38.6691 37.4809C38.606 37.5403 38.5556 37.6121 38.5212 37.6919C38.4868 37.7717 38.469 37.8577 38.469 37.9447C38.469 38.0317 38.4868 38.1177 38.5212 38.1975C38.5556 38.2773 38.606 38.3491 38.6691 38.4085C38.7322 38.4679 38.8068 38.5136 38.8882 38.5428C38.9696 38.572 39.0561 38.584 39.1423 38.5781C39.2831 38.5821 39.4215 38.5404 39.5369 38.4593L39.5254 37.9462Z" fill="white"/>
<path d="M41.0915 38.1842H40.1388C40.1421 38.2402 40.1564 38.295 40.1807 38.3455C40.2051 38.396 40.2391 38.4411 40.2808 38.4783C40.3225 38.5155 40.3711 38.544 40.4238 38.5622C40.4765 38.5804 40.5322 38.588 40.5878 38.5845C40.6533 38.5866 40.7184 38.5742 40.7786 38.5482C40.8388 38.5221 40.8925 38.483 40.936 38.4336L41.0224 38.5351C40.9403 38.621 40.8349 38.6807 40.7195 38.7067C40.604 38.7328 40.4835 38.7242 40.3728 38.6819C40.2622 38.6395 40.1663 38.5654 40.0971 38.4687C40.0279 38.372 39.9883 38.2569 39.9834 38.1378C39.9834 37.9893 40.0419 37.8469 40.1461 37.7419C40.2503 37.6369 40.3915 37.5779 40.5389 37.5779C40.6862 37.5779 40.8275 37.6369 40.9316 37.7419C41.0358 37.8469 41.0943 37.9893 41.0943 38.1378C41.0943 38.1378 41.0915 38.1668 41.0915 38.1842ZM40.1388 38.071H40.9447C40.9447 37.9633 40.9022 37.8601 40.8267 37.7839C40.7511 37.7078 40.6486 37.665 40.5417 37.665C40.4349 37.665 40.3324 37.7078 40.2568 37.7839C40.1813 37.8601 40.1388 37.9633 40.1388 38.071Z" fill="white"/>
<path d="M42.0076 38.6427C41.9383 38.696 41.8529 38.7236 41.7658 38.721C41.721 38.726 41.6757 38.7208 41.6331 38.7059C41.5905 38.6909 41.5518 38.6666 41.5198 38.6346C41.4878 38.6026 41.4633 38.5638 41.4481 38.5211C41.4329 38.4783 41.4274 38.4327 41.4319 38.3875V37.6855H41.2305V37.555H41.4319V37.3026H41.5873V37.555H41.9327V37.6855H41.5873V38.3701C41.5834 38.3975 41.5856 38.4256 41.5938 38.4521C41.6021 38.4786 41.6161 38.5029 41.6349 38.5232C41.6536 38.5435 41.6767 38.5593 41.7024 38.5695C41.728 38.5796 41.7556 38.5838 41.7831 38.5818C41.8452 38.5834 41.9057 38.5617 41.9529 38.5209L42.0076 38.6427Z" fill="white"/>
<path d="M42.8862 37.1837H43.0445V38.5722H43.8936V38.7114H42.8862V37.1837Z" fill="white"/>
<path d="M44.0933 37.2012C44.0936 37.1867 44.0968 37.1725 44.1027 37.1592C44.1085 37.146 44.1169 37.1341 44.1273 37.1241C44.1377 37.1142 44.15 37.1064 44.1634 37.1012C44.1768 37.096 44.1911 37.0935 44.2055 37.0939C44.2197 37.0931 44.234 37.0952 44.2474 37.1001C44.2608 37.105 44.2731 37.1125 44.2835 37.1222C44.294 37.1319 44.3024 37.1437 44.3083 37.1568C44.3142 37.1698 44.3174 37.1839 44.3178 37.1983C44.3178 37.2283 44.3059 37.257 44.2849 37.2782C44.2638 37.2994 44.2353 37.3113 44.2055 37.3113C44.1757 37.3113 44.1472 37.2994 44.1261 37.2782C44.1051 37.257 44.0933 37.2283 44.0933 37.1983V37.2012ZM44.1278 37.5635H44.2803V38.7231H44.1278V37.5635Z" fill="white"/>
<path d="M45.7571 38.045V38.7122H45.6046V38.0595C45.6112 38.0117 45.6071 37.9631 45.5925 37.9171C45.5779 37.8711 45.5533 37.829 45.5204 37.7939C45.4875 37.7588 45.4472 37.7316 45.4025 37.7143C45.3578 37.6971 45.3098 37.6901 45.2621 37.6941C45.2077 37.6904 45.1532 37.6987 45.1024 37.7185C45.0516 37.7383 45.0057 37.769 44.9678 37.8085C44.93 37.848 44.9012 37.8953 44.8834 37.9472C44.8656 37.9991 44.8593 38.0543 44.8649 38.1089V38.7122H44.7095V37.5519H44.8563V37.7637C44.9027 37.6913 44.9674 37.6327 45.0438 37.594C45.1202 37.5552 45.2055 37.5377 45.2908 37.5432C45.3563 37.5377 45.4221 37.5471 45.4833 37.5709C45.5446 37.5946 45.5997 37.632 45.6446 37.6803C45.6895 37.7286 45.7229 37.7865 45.7424 37.8497C45.7619 37.9128 45.7669 37.9796 45.7571 38.045Z" fill="white"/>
<path d="M46.5984 38.1346L46.3278 38.3839V38.7115H46.1753V37.1055H46.3278V38.2013L47.0099 37.5751H47.1999L46.7135 38.0447L47.2459 38.7231H47.056L46.5984 38.1346Z" fill="white"/>
<path d="M73.1783 46.5558C73.177 46.4512 73.197 46.3475 73.237 46.2509C73.2769 46.1543 73.3361 46.067 73.4108 45.9942C73.4855 45.9215 73.5742 45.8649 73.6714 45.8279C73.7686 45.7908 73.8723 45.7742 73.9761 45.7789C74.0786 45.7754 74.1807 45.7934 74.276 45.8318C74.3712 45.8703 74.4574 45.9283 74.529 46.0021L74.4282 46.1065C74.37 46.0464 74.3 45.9991 74.2227 45.9677C74.1453 45.9362 74.0623 45.9213 73.979 45.9239C73.8124 45.9239 73.6528 45.9905 73.535 46.109C73.4173 46.2275 73.3511 46.3882 73.3511 46.5558C73.3511 46.7234 73.4173 46.8842 73.535 47.0027C73.6528 47.1212 73.8124 47.1878 73.979 47.1878C74.0624 47.1911 74.1456 47.1765 74.2231 47.145C74.3005 47.1135 74.3704 47.0659 74.4282 47.0052L74.529 47.1095C74.4569 47.1836 74.3703 47.2417 74.2745 47.2802C74.1788 47.3186 74.0762 47.3365 73.9732 47.3327C73.8695 47.3375 73.7659 47.3208 73.6689 47.2838C73.5718 47.2467 73.4834 47.1901 73.4089 47.1173C73.3344 47.0445 73.2755 46.9571 73.2359 46.8606C73.1962 46.764 73.1766 46.6603 73.1783 46.5558Z" fill="white"/>
<path d="M74.705 46.5558C74.6998 46.3959 74.7423 46.238 74.8269 46.1025C74.9115 45.967 75.0343 45.86 75.1798 45.7953C75.3252 45.7306 75.4865 45.7111 75.643 45.7393C75.7995 45.7675 75.944 45.8422 76.0581 45.9536C76.1722 46.0651 76.2505 46.2084 76.2831 46.365C76.3158 46.5216 76.3011 46.6845 76.2411 46.8327C76.1812 46.9809 76.0785 47.1077 75.9465 47.1968C75.8144 47.2859 75.6589 47.3332 75.4999 47.3327C75.3963 47.3371 75.2929 47.3201 75.196 47.2829C75.0992 47.2457 75.0109 47.189 74.9365 47.1163C74.8621 47.0436 74.8032 46.9564 74.7634 46.86C74.7236 46.7637 74.7037 46.6602 74.705 46.5558ZM76.145 46.5558C76.1467 46.4288 76.1109 46.304 76.042 46.1976C75.9731 46.0911 75.8743 46.0076 75.7581 45.9578C75.642 45.9079 75.5138 45.894 75.3897 45.9177C75.2657 45.9415 75.1515 46.0018 75.0616 46.091C74.9717 46.1803 74.9103 46.2944 74.885 46.4189C74.8597 46.5434 74.8718 46.6727 74.9197 46.7902C74.9676 46.9078 75.0492 47.0084 75.154 47.0792C75.2589 47.15 75.3823 47.1878 75.5085 47.1878C75.5914 47.1893 75.6737 47.1741 75.7506 47.1429C75.8275 47.1117 75.8973 47.0652 75.956 47.0062C76.0146 46.9472 76.0608 46.8769 76.0918 46.7995C76.1228 46.7221 76.1379 46.6392 76.1364 46.5558H76.145Z" fill="white"/>
<path d="M77.8401 46.318C77.8401 46.6427 77.6069 46.8369 77.2213 46.8369H76.8126V47.321H76.6543V45.802H77.2299C77.6069 45.802 77.8401 45.9905 77.8401 46.318ZM77.6789 46.318C77.6789 46.0716 77.5206 45.9325 77.2155 45.9325H76.8126V46.6949H77.2155C77.5206 46.6949 77.6789 46.5557 77.6789 46.318Z" fill="white"/>
<path d="M78.708 46.7935V47.321H78.5496V46.7935L77.9419 45.802H78.1118L78.6331 46.6717L79.1544 45.802H79.3128L78.708 46.7935Z" fill="white"/>
<path d="M80.6602 44.0425V49.1271H71.5277V44.0425H80.6602ZM80.9482 43.7526H71.2397V49.417H80.9482V43.7526Z" fill="white"/>
<path d="M79.7074 53.7015H64.2735C63.588 53.7015 63.0322 54.2609 63.0322 54.9509V58.1889C63.0322 58.879 63.588 59.4383 64.2735 59.4383H79.7074C80.393 59.4383 80.9487 58.879 80.9487 58.1889V54.9509C80.9487 54.2609 80.393 53.7015 79.7074 53.7015Z" fill="#407BFF"/>
<path d="M67.3491 57.1511L67.4499 56.9395C67.6244 57.0832 67.8437 57.1602 68.0691 57.1569C68.3946 57.1569 68.5328 57.0323 68.5328 56.8671C68.5328 56.4032 67.3808 56.696 67.3808 55.9974C67.3808 55.7075 67.6054 55.4553 68.1008 55.4553C68.3142 55.4525 68.5239 55.5109 68.7056 55.6234L68.6163 55.838C68.4621 55.7393 68.2835 55.6861 68.1008 55.6843C67.7811 55.6843 67.6429 55.8206 67.6429 55.9742C67.6429 56.4351 68.7949 56.1452 68.7949 56.8439C68.7949 57.1337 68.5616 57.3831 68.0662 57.3831C67.8078 57.3911 67.5545 57.3092 67.3491 57.1511Z" fill="white"/>
<path d="M70.8051 55.4755V57.3656H70.5373V56.5278H69.4573V57.3714H69.1895V55.4813H69.4573V56.293H70.5373V55.4813L70.8051 55.4755Z" fill="white"/>
<path d="M72.5766 56.893H71.5686L71.3612 57.3656H71.0732L71.9372 55.4755H72.2022L73.0662 57.3656H72.7782L72.5766 56.893ZM72.4816 56.6756L72.0784 55.7509L71.6723 56.6756H72.4816Z" fill="white"/>
<path d="M74.5921 57.3656L74.186 56.7858H74.0679H73.6043V57.3656H73.3364V55.4755H74.0679C74.5575 55.4755 74.8542 55.7219 74.8542 56.1335C74.8597 56.2651 74.8221 56.3948 74.7472 56.5027C74.6722 56.6107 74.5641 56.6908 74.4395 56.7307L74.8859 57.3656H74.5921ZM74.5921 56.1335C74.5921 55.864 74.4135 55.7103 74.0708 55.7103H73.6129V56.5597H74.0708C74.4049 56.5597 74.5921 56.4031 74.5921 56.1335Z" fill="white"/>
<path d="M76.6518 57.1308V57.3656H75.2896V55.4755H76.6086V55.7103H75.5516V56.2901H76.4934V56.5278H75.5516V57.1395L76.6518 57.1308Z" fill="white"/>
<path d="M100.299 34.8269H95.5498C95.0647 34.8269 94.6714 35.2228 94.6714 35.7111V40.4913C94.6714 40.9796 95.0647 41.3755 95.5498 41.3755H100.299C100.784 41.3755 101.177 40.9796 101.177 40.4913V35.7111C101.177 35.2228 100.784 34.8269 100.299 34.8269Z" fill="#407BFF"/>
<path d="M96.4249 36.9581C96.6474 36.9581 96.8278 36.7763 96.8278 36.552C96.8278 36.3277 96.6474 36.1459 96.4249 36.1459C96.2024 36.1459 96.022 36.3277 96.022 36.552C96.022 36.7763 96.2024 36.9581 96.4249 36.9581Z" fill="white"/>
<path d="M99.4259 38.4249C99.6484 38.4249 99.8288 38.2431 99.8288 38.0188C99.8288 37.7945 99.6484 37.6127 99.4259 37.6127C99.2034 37.6127 99.0229 37.7945 99.0229 38.0188C99.0229 38.2431 99.2034 38.4249 99.4259 38.4249Z" fill="white"/>
<path d="M96.9802 39.6509C96.9802 39.7312 96.9566 39.8097 96.9123 39.8765C96.868 39.9433 96.8051 39.9953 96.7314 40.0261C96.6578 40.0568 96.5768 40.0648 96.4986 40.0492C96.4205 40.0335 96.3487 39.9948 96.2923 39.938C96.236 39.8812 96.1976 39.8089 96.1821 39.7301C96.1665 39.6513 96.1745 39.5697 96.205 39.4955C96.2355 39.4213 96.2871 39.3579 96.3534 39.3132C96.4197 39.2686 96.4976 39.2448 96.5773 39.2448C96.6841 39.2448 96.7866 39.2876 96.8622 39.3638C96.9377 39.4399 96.9802 39.5432 96.9802 39.6509Z" fill="white"/>
<path d="M96.6124 39.7143L96.5404 39.5897L99.2707 38.0243L96.3936 36.6155L96.4569 36.485L99.5788 38.0127L96.6124 39.7143Z" fill="white"/>
<path d="M98.0899 40.5841C98.0899 40.5841 98.0898 41.9465 98.8617 42.5843C98.8617 42.5843 97.7903 42.3988 97.2979 40.816L98.0899 40.5841Z" fill="#407BFF"/>
<path d="M98.0958 104.455H100.195V82.3509H98.0958V104.455Z" fill="#407BFF"/>
<path opacity="0.2" d="M98.0958 104.455H100.195V82.3509H98.0958V104.455Z" fill="black"/>
<path d="M83.065 104.455H85.1646V82.3509H83.065V104.455Z" fill="#407BFF"/>
<path opacity="0.2" d="M83.065 104.455H85.1646V82.3509H83.065V104.455Z" fill="black"/>
<path d="M100.858 104.455H102.957V82.3509H100.858V104.455Z" fill="#407BFF"/>
<path d="M115.888 104.455H117.988V82.3509H115.888V104.455Z" fill="#407BFF"/>
<path d="M78.7622 81.5334V83.1683C78.7618 83.231 78.7738 83.2931 78.7973 83.3511C78.8209 83.4091 78.8556 83.4619 78.8995 83.5064C78.9434 83.5508 78.9956 83.5861 79.0531 83.6102C79.1106 83.6342 79.1723 83.6466 79.2345 83.6466H119.975C120.101 83.6466 120.222 83.5962 120.311 83.5065C120.4 83.4168 120.45 83.2952 120.45 83.1683V81.5334C120.449 81.407 120.399 81.2861 120.31 81.197C120.221 81.1079 120.101 81.0579 119.975 81.0579H79.2345C79.1093 81.0579 78.9891 81.108 78.9006 81.1972C78.812 81.2863 78.7622 81.4073 78.7622 81.5334Z" fill="#407BFF"/>
<path opacity="0.2" d="M78.7622 81.5334V83.1683C78.7618 83.231 78.7738 83.2931 78.7973 83.3511C78.8209 83.4091 78.8556 83.4619 78.8995 83.5064C78.9434 83.5508 78.9956 83.5861 79.0531 83.6102C79.1106 83.6342 79.1723 83.6466 79.2345 83.6466H119.975C120.101 83.6466 120.222 83.5962 120.311 83.5065C120.4 83.4168 120.45 83.2952 120.45 83.1683V81.5334C120.449 81.407 120.399 81.2861 120.31 81.197C120.221 81.1079 120.101 81.0579 119.975 81.0579H79.2345C79.1093 81.0579 78.9891 81.108 78.9006 81.1972C78.812 81.2863 78.7622 81.4073 78.7622 81.5334Z" fill="white"/>
<path opacity="0.3" d="M104.069 81.5334V83.1683C104.069 83.2952 104.119 83.4168 104.208 83.5065C104.297 83.5962 104.418 83.6466 104.544 83.6466H119.975C120.101 83.6466 120.222 83.5962 120.311 83.5065C120.4 83.4168 120.45 83.2952 120.45 83.1683V81.5334C120.45 81.407 120.399 81.2861 120.31 81.197C120.221 81.1079 120.101 81.0579 119.975 81.0579H104.544C104.419 81.0579 104.298 81.1079 104.209 81.197C104.12 81.2861 104.07 81.407 104.069 81.5334Z" fill="white"/>
<path d="M103.758 44.6423C104.431 44.8302 105.022 45.2381 105.439 45.8018C105.857 46.3655 106.075 47.0529 106.062 47.7557C106.062 49.1646 106.102 49.1472 106.9 49.6632C107.697 50.1792 106.387 51.1126 106.387 51.1126C106.478 51.2624 106.518 51.438 106.501 51.6128C106.484 51.7875 106.41 51.9519 106.292 52.0808C105.874 52.5475 106.689 52.7012 106.689 52.7012C106.689 52.7012 106.35 53.4404 105.912 53.0403C105.912 53.0403 105.958 53.8375 104.673 53.8926C103.389 53.9477 101.327 54.4956 100.837 53.8085C100.348 53.1215 98.7896 51.1329 98.7896 51.1329C98.7896 51.1329 97.4216 50.5908 97.8219 48.7123C98.2222 46.8339 99.6651 45.4743 101.013 45.5236C102.361 45.5729 103.758 44.6423 103.758 44.6423Z" fill="#263238"/>
<path d="M94.5674 56.0059C94.5674 56.0059 93.4903 56.2233 93.4932 56.4233C93.496 56.6233 93.9137 58.1858 94.1066 58.3771C94.3066 58.5438 94.525 58.6868 94.7575 58.8033L94.4839 61.3311L95.9556 61.7137L95.9757 59.0178C95.9757 59.0178 96.4941 58.2264 96.1226 57.4466C95.7511 56.6668 94.5674 56.0059 94.5674 56.0059Z" fill="#E4897B"/>
<path opacity="0.2" d="M94.5674 56.0059C94.5674 56.0059 93.4903 56.2233 93.4932 56.4233C93.496 56.6233 93.9137 58.1858 94.1066 58.3771C94.3066 58.5438 94.525 58.6868 94.7575 58.8033L94.4839 61.3311L95.9556 61.7137L95.9757 59.0178C95.9757 59.0178 96.4941 58.2264 96.1226 57.4466C95.7511 56.6668 94.5674 56.0059 94.5674 56.0059Z" fill="black"/>
<path d="M98.4787 56.3016C97.5052 57.0031 97.1366 60.8818 96.7507 61.4442C96.3648 62.0065 96.2121 60.3716 96.2121 60.3716L94.2537 60.2788C94.2537 60.2788 93.9859 62.5834 95.1177 64.2242C96.2496 65.8649 98.3347 64.6445 99.5184 62.0152C100.702 59.386 98.4787 56.3016 98.4787 56.3016Z" fill="#263238"/>
<path opacity="0.2" d="M95.1177 64.2242C95.3236 64.5519 95.6377 64.7962 96.0048 64.9141C97.1424 65.2417 98.5968 64.0444 99.5155 62.0152C99.79 61.3836 99.9057 60.6936 99.8524 60.0063C99.7257 58.0322 98.4787 56.3016 98.4787 56.3016C97.5081 57.0031 97.1366 60.8818 96.7507 61.4442C96.3648 62.0065 96.215 60.3716 96.215 60.3716L94.2537 60.2759C94.2537 60.2759 93.9859 62.5863 95.1177 64.2242Z" fill="white"/>
<path d="M98.4499 56.3393C97.9517 56.4031 96.6787 60.6354 96.6787 60.6354L99.864 62.0355L100.708 59.5396L98.4499 56.3393Z" fill="#407BFF"/>
<path opacity="0.5" d="M100.708 59.5281L99.864 62.0356L99.0432 61.679L96.6787 60.647C96.6787 60.647 97.9517 56.4147 98.4499 56.3509L99.3888 57.6757L100.708 59.5281Z" fill="white"/>
<path opacity="0.2" d="M100.708 59.528L99.8638 62.0355L99.043 61.679C98.7504 61.0389 98.6284 60.3332 98.689 59.6312C98.7496 58.9293 98.9907 58.2553 99.3886 57.6757L100.708 59.528Z" fill="black"/>
<path d="M85.6803 102.005L83.7363 101.469L84.0848 96.6972L86.023 97.2364L85.6803 102.005Z" fill="#E4897B"/>
<path d="M83.6177 101.208L85.8728 101.367C85.8914 101.367 85.9099 101.371 85.927 101.378C85.9442 101.386 85.9597 101.397 85.9726 101.41C85.9855 101.424 85.9956 101.44 86.0022 101.457C86.0088 101.475 86.0118 101.493 86.011 101.512V103.315C86.0085 103.362 85.9967 103.408 85.9764 103.45C85.9562 103.492 85.9278 103.53 85.893 103.561C85.8582 103.592 85.8176 103.615 85.7736 103.631C85.7296 103.646 85.683 103.652 85.6366 103.649C84.8504 103.582 84.4846 103.51 83.4881 103.431C82.6037 103.406 81.7221 103.318 80.8501 103.167C80.0293 102.976 80.2395 102.162 80.6024 102.17C81.5547 102.118 82.4774 101.818 83.2808 101.301C83.3809 101.235 83.4986 101.203 83.6177 101.208Z" fill="#263238"/>
<path d="M82.5116 101.376C82.4807 101.34 82.4607 101.296 82.4541 101.248C82.4475 101.201 82.4545 101.153 82.4742 101.109C82.4812 101.08 82.4955 101.054 82.5156 101.032C82.5358 101.01 82.5612 100.994 82.5893 100.985C82.8426 100.906 83.3837 101.336 83.4528 101.385C83.4586 101.392 83.4629 101.399 83.4654 101.408C83.4679 101.416 83.4685 101.425 83.4672 101.434C83.4644 101.443 83.4596 101.45 83.453 101.457C83.4464 101.463 83.4384 101.467 83.4298 101.469C83.2512 101.501 83.0698 101.513 82.8887 101.504C82.7515 101.511 82.6168 101.465 82.5116 101.376ZM82.6181 101.086C82.6039 101.09 82.5911 101.098 82.5809 101.109C82.5708 101.119 82.5637 101.133 82.5606 101.147C82.5494 101.175 82.5455 101.205 82.549 101.235C82.5525 101.265 82.5634 101.294 82.5807 101.318C82.6699 101.417 82.9318 101.449 83.2974 101.402C83.0729 101.237 82.7534 101.043 82.6181 101.086Z" fill="#407BFF"/>
<path d="M83.3867 101.461C83.1968 101.327 82.9262 100.881 82.9866 100.666C82.9976 100.627 83.0211 100.593 83.0535 100.57C83.0858 100.546 83.1251 100.534 83.1651 100.535C83.2015 100.532 83.2381 100.538 83.2721 100.551C83.3061 100.565 83.3364 100.586 83.3608 100.614C83.5479 100.825 83.4615 101.411 83.4615 101.429C83.4593 101.436 83.4556 101.443 83.4507 101.449C83.4457 101.455 83.4396 101.46 83.4328 101.464C83.4296 101.465 83.4262 101.466 83.4227 101.466C83.4192 101.466 83.4157 101.465 83.4126 101.464C83.4039 101.465 83.3948 101.464 83.3867 101.461ZM83.168 100.637C83.1018 100.637 83.0816 100.672 83.0759 100.698C83.0923 100.938 83.1945 101.165 83.3637 101.336C83.4068 101.116 83.3764 100.887 83.2773 100.686C83.2657 100.671 83.2509 100.659 83.234 100.65C83.217 100.642 83.1984 100.637 83.1795 100.637H83.168Z" fill="#407BFF"/>
<path opacity="0.2" d="M86.0222 97.2364L84.084 96.7001L83.8853 99.428L85.835 99.8657L86.0222 97.2364Z" fill="black"/>
<path d="M88.2173 101.935L90.0518 102.776L90.5184 100.793L91.1462 98.1263L89.3174 97.2828L88.6867 99.9468L88.2173 101.935Z" fill="#E4897B"/>
<path opacity="0.2" d="M88.6865 99.9468L90.5182 100.793L91.146 98.1263L89.3172 97.2828L88.6865 99.9468Z" fill="black"/>
<path d="M88.1422 101.66L90.3426 102.176C90.3799 102.183 90.413 102.205 90.4346 102.236C90.4562 102.268 90.4645 102.307 90.4578 102.344L90.1698 104.124C90.1596 104.17 90.1406 104.212 90.1139 104.25C90.0873 104.288 90.0535 104.32 90.0144 104.345C89.9754 104.37 89.9318 104.387 89.8864 104.395C89.8409 104.402 89.7943 104.401 89.7493 104.391C88.9832 104.2 88.629 104.069 87.6613 103.831C86.7917 103.666 85.9351 103.437 85.0981 103.147C84.3176 102.826 84.6546 102.057 85.0146 102.124C85.9624 102.223 86.9196 102.074 87.7938 101.692C87.9038 101.645 88.0256 101.634 88.1422 101.66Z" fill="#263238"/>
<path d="M87.0247 101.649C86.9987 101.609 86.9849 101.562 86.9849 101.514C86.9849 101.466 86.9987 101.419 87.0247 101.379C87.0366 101.351 87.0553 101.327 87.0789 101.309C87.1026 101.291 87.1305 101.279 87.16 101.275C87.4219 101.237 87.8881 101.747 87.9428 101.808C87.9464 101.816 87.9483 101.824 87.9483 101.833C87.9483 101.841 87.9464 101.85 87.9428 101.858C87.9392 101.866 87.9332 101.873 87.9254 101.878C87.9177 101.882 87.9087 101.884 87.8997 101.884C87.719 101.886 87.5387 101.87 87.3615 101.834C87.2302 101.817 87.1102 101.751 87.0247 101.649ZM87.1744 101.376C87.1596 101.378 87.1457 101.384 87.134 101.393C87.1223 101.402 87.1134 101.414 87.1082 101.428C87.0933 101.454 87.0854 101.484 87.0854 101.514C87.0854 101.544 87.0933 101.573 87.1082 101.599C87.1801 101.713 87.4334 101.785 87.8018 101.797C87.6061 101.597 87.3183 101.356 87.1801 101.376H87.1744Z" fill="#407BFF"/>
<path d="M87.874 101.878C87.7042 101.718 87.5085 101.234 87.6035 101.031C87.6207 100.994 87.6495 100.964 87.6855 100.946C87.7215 100.928 87.7625 100.922 87.8021 100.93C87.8379 100.934 87.8724 100.946 87.9031 100.965C87.9339 100.984 87.9603 101.01 87.9805 101.04C88.1331 101.281 87.9546 101.843 87.9517 101.861C87.9441 101.875 87.9319 101.886 87.9172 101.893C87.9107 101.895 87.9036 101.895 87.8971 101.893C87.8922 101.893 87.8873 101.892 87.8832 101.889C87.8791 101.886 87.8759 101.883 87.874 101.878ZM87.7877 101.031C87.7215 101.031 87.6956 101.051 87.687 101.077C87.6678 101.32 87.7374 101.562 87.8827 101.756C87.9569 101.545 87.963 101.316 87.8999 101.101C87.8905 101.084 87.8776 101.069 87.8623 101.058C87.8469 101.046 87.8294 101.038 87.8107 101.034L87.7877 101.031Z" fill="#407BFF"/>
<path d="M101.814 74.8456L102.407 68.2536L113.351 68.5116C113.351 68.5116 114.624 77.6894 113.694 79.3853C112.015 82.3972 100.993 80.6869 98.4296 80.942C97.3611 81.5072 91.7278 100.301 91.7278 100.301L88.5742 99.0193C88.5742 99.0193 91.9669 83.1567 92.7387 80.1767C93.8129 76.0168 98.2078 76.0893 101.814 74.8456Z" fill="#263238"/>
<path d="M83.6929 98.6945L86.475 98.9525C86.475 98.9525 89.8877 81.4579 90.1441 81.3912C90.6193 81.255 92.0017 81.1013 92.7361 80.9042C97.897 79.5533 110.612 77.0661 110.612 77.0661L105.924 72.5178C105.924 72.5178 84.6721 75.0804 84.2113 80.1099C83.9837 82.5247 83.6929 98.6945 83.6929 98.6945Z" fill="#263238"/>
<path opacity="0.2" d="M90.9044 81.4029C91.3796 81.2666 92.0103 81.0985 92.7534 80.9043C92.546 81.0144 93.1451 78.2953 93.7412 77.5851C94.922 76.182 99.6711 75.4254 101.376 75.15C102.799 74.921 107.58 74.4949 107.58 74.4949C107.58 74.4949 99.1412 73.7615 92.7822 75.5182C89.6401 76.3878 90.1988 79.4751 90.9044 81.4029Z" fill="black"/>
<path d="M96.6722 56.8726C96.6786 56.8959 96.6799 56.9204 96.6761 56.9443C96.6722 56.9681 96.6633 56.9909 96.6499 57.011C96.6365 57.0311 96.6189 57.048 96.5984 57.0607C96.5779 57.0733 96.555 57.0813 96.5311 57.0842L94.6735 57.3451C94.6221 57.3514 94.5702 57.3391 94.5269 57.3104C94.4837 57.2817 94.4519 57.2386 94.4373 57.1886L93.5071 53.5563C93.5002 53.5316 93.4983 53.5057 93.5016 53.4802C93.5048 53.4547 93.5131 53.4301 93.526 53.4079C93.5389 53.3857 93.5562 53.3664 93.5767 53.351C93.5971 53.3357 93.6205 53.3247 93.6453 53.3186L95.5029 53.0577C95.5579 53.056 95.6118 53.0731 95.6557 53.1063C95.6997 53.1395 95.7311 53.1868 95.7449 53.2403L96.6722 56.8726Z" fill="#263238"/>
<path opacity="0.5" d="M95.5351 53.2462L96.4797 56.9133C96.4878 56.9342 96.491 56.9567 96.489 56.9791C96.487 57.0015 96.4798 57.0231 96.4681 57.0422C96.4564 57.0613 96.4404 57.0775 96.4214 57.0893C96.4024 57.1011 96.381 57.1083 96.3587 57.1104L94.7834 57.3307C94.6768 57.3307 94.4752 57.3162 94.4493 57.2119L93.5075 53.5332C93.4816 53.4288 93.6515 53.3187 93.7552 53.3042L95.3306 53.081C95.3789 53.0782 95.4266 53.0936 95.4644 53.1241C95.5021 53.1546 95.5273 53.1981 95.5351 53.2462Z" fill="white"/>
<path d="M88.3325 98.283L88.2173 99.3527L91.8662 100.646L92.209 99.8658L88.3325 98.283Z" fill="#407BFF"/>
<path d="M83.1138 97.7524L83.2261 98.8192L86.6994 99.2193L86.8462 98.3815L83.1138 97.7524Z" fill="#407BFF"/>
<path d="M102.156 69.5986C101.516 65.9084 100.442 60.9658 98.4492 56.3393C99.4967 55.8944 100.575 55.5263 101.675 55.2377C103.282 54.8008 104.913 54.4572 106.559 54.2086C107.697 54.0865 108.843 54.0555 109.986 54.1158C109.986 54.1158 112.452 58.754 113.702 69.6016L102.156 69.5986Z" fill="#407BFF"/>
<path opacity="0.6" d="M113.699 69.5986H102.156C101.516 65.9084 100.442 60.9658 98.4492 56.3393C99.4962 55.8931 100.574 55.525 101.675 55.2377C103.282 54.8008 104.913 54.4572 106.559 54.2086C107.697 54.0865 108.843 54.0555 109.986 54.1158C110.211 54.5626 110.411 55.0213 110.586 55.4899C111.214 57.1525 111.734 58.8549 112.141 60.5861C112.846 63.5547 113.366 66.5647 113.699 69.5986Z" fill="white"/>
<path opacity="0.2" d="M112.138 60.5862C110.269 61.9863 107.55 60.0064 107.55 60.0064L110.592 55.4871C111.218 57.1508 111.734 58.8542 112.138 60.5862Z" fill="black"/>
<path d="M103.918 57.1771C105.739 57.5829 107.15 54.942 107.15 54.942C107.15 54.942 107.15 54.2434 104.391 54.5913C101.632 54.9392 101.355 56.606 103.918 57.1771Z" fill="#263238"/>
<path opacity="0.2" d="M103.918 57.1771C105.739 57.5829 107.15 54.942 107.15 54.942C107.15 54.942 107.15 54.2434 104.391 54.5913C101.632 54.9392 101.355 56.606 103.918 57.1771Z" fill="white"/>
<path opacity="0.5" d="M102.084 60.818L106.655 60.3223L107.76 65.6272L103.331 65.9779L102.084 60.818Z" fill="white"/>
<path opacity="0.2" d="M102.084 60.818L107.76 65.6272L106.655 60.3223L102.084 60.818Z" fill="black"/>
<path d="M99.7455 58.8613L98.0866 57.7655C98.0866 57.7655 97.381 55.6291 97.2226 55.4175C97.0642 55.2058 95.3131 55.687 95.1202 55.7073C94.9272 55.7276 95.4399 57.9105 95.6731 58.0989C95.9064 58.2873 96.6696 58.3105 96.6696 58.3105L98.5531 60.0064L99.7455 58.8613Z" fill="#E4897B"/>
<path d="M109.708 54.1158C108.602 54.3738 105.943 59.0004 104.524 59.8527C103.104 60.7049 99.1726 57.9771 99.1726 57.9771L97.8276 59.6613C97.8276 59.6613 101.01 62.4848 103.795 62.5602C106.58 62.6356 110.528 58.6612 111.116 57.2089C111.703 55.7566 111.055 53.8027 109.708 54.1158Z" fill="#263238"/>
<path opacity="0.2" d="M109.708 54.1158C108.602 54.3738 105.943 59.0004 104.524 59.8527C103.104 60.7049 99.1726 57.9771 99.1726 57.9771L97.8276 59.6613C97.8276 59.6613 101.01 62.4848 103.795 62.5602C106.58 62.6356 110.528 58.6612 111.116 57.2089C111.703 55.7566 111.055 53.8027 109.708 54.1158Z" fill="white"/>
<path d="M103.838 50.0633C104.273 51.6489 105.31 54.4376 106.793 54.8957C106.793 54.8957 105.702 56.6959 104.066 56.8466C103.026 56.9423 102.45 55.7595 102.45 55.7595C103.51 55.5595 103.104 54.7768 102.269 53.797L103.838 50.0633Z" fill="#E4897B"/>
<path opacity="0.2" d="M103.199 51.5996L102.271 53.8085C102.467 54.0371 102.645 54.2803 102.804 54.5361C103.847 54.6173 104.596 52.9533 104.339 52.275C104.256 51.9822 103.392 51.8112 103.199 51.5996Z" fill="black"/>
<path d="M100.224 47.5412C101.217 47.9557 101.027 49.0486 99.38 51.0372C98.3634 50.1676 97.8133 48.1558 98.3461 47.5122C98.8789 46.8687 99.3598 47.1759 100.224 47.5412Z" fill="#263238"/>
<path d="M104.322 48.3877C104.668 50.5532 104.979 51.7997 104.152 53.139C102.911 55.1508 100.074 54.7652 99.0891 52.7476C98.2107 50.9359 97.7902 47.6978 99.6651 46.3701C100.08 46.0776 100.562 45.8965 101.065 45.844C101.569 45.7916 102.078 45.8695 102.543 46.0705C103.008 46.2714 103.415 46.5887 103.724 46.9922C104.034 47.3957 104.235 47.8721 104.311 48.3762L104.322 48.3877Z" fill="#E4897B"/>
<path d="M101.283 49.6894C101.324 49.8635 101.263 50.0259 101.148 50.0491C101.033 50.0723 100.915 49.9563 100.878 49.7822C100.84 49.6082 100.898 49.4487 101.007 49.4197C101.117 49.3907 101.235 49.5212 101.283 49.6894Z" fill="#263238"/>
<path d="M99.3222 50.1504C99.3596 50.3244 99.2991 50.4868 99.1869 50.51C99.0746 50.5333 98.9509 50.4172 98.8991 50.2432C98.8473 50.0692 98.9221 49.9067 99.0344 49.8806C99.1466 49.8545 99.2819 49.9618 99.3222 50.1504Z" fill="#263238"/>
<path d="M99.9814 50.0719C99.8939 50.6498 99.7273 51.2127 99.4863 51.7446C99.6238 51.8033 99.7724 51.8309 99.9216 51.8254C100.071 51.8199 100.217 51.7814 100.35 51.7127L99.9814 50.0719Z" fill="#DE5753"/>
<path d="M101.68 48.9446C101.692 48.9444 101.703 48.9417 101.714 48.9367C101.724 48.9317 101.733 48.9245 101.741 48.9156C101.751 48.9059 101.758 48.8943 101.763 48.8817C101.769 48.869 101.771 48.8553 101.771 48.8416C101.771 48.8279 101.769 48.8143 101.763 48.8016C101.758 48.7889 101.751 48.7773 101.741 48.7676C101.617 48.6575 101.469 48.5787 101.309 48.5379C101.148 48.497 100.981 48.4952 100.82 48.5327C100.795 48.5408 100.773 48.558 100.76 48.5811C100.747 48.6041 100.742 48.6313 100.748 48.6574C100.757 48.6836 100.775 48.7054 100.799 48.7183C100.823 48.7313 100.851 48.7344 100.877 48.727C101.005 48.6999 101.136 48.7033 101.262 48.7371C101.387 48.7709 101.503 48.834 101.6 48.9214C101.611 48.9307 101.624 48.9376 101.638 48.9416C101.652 48.9455 101.666 48.9466 101.68 48.9446Z" fill="#263238"/>
<path d="M98.2795 49.6724C98.2986 49.6678 98.3163 49.6582 98.3304 49.6444C98.3446 49.6306 98.3549 49.6132 98.36 49.5941C98.3872 49.4673 98.4435 49.3487 98.5245 49.2479C98.6055 49.1472 98.7089 49.067 98.8263 49.0139C98.8486 49.0018 98.8658 48.9821 98.875 48.9584C98.8842 48.9346 98.8846 48.9083 98.8763 48.8842C98.868 48.8601 98.8515 48.8398 98.8296 48.8269C98.8078 48.814 98.7821 48.8094 98.7572 48.8138C98.6059 48.8805 98.4727 48.9827 98.3685 49.1119C98.2644 49.2411 98.1924 49.3935 98.1586 49.5563C98.1551 49.5695 98.1544 49.5832 98.1563 49.5967C98.1582 49.6101 98.1628 49.623 98.1698 49.6347C98.1768 49.6463 98.186 49.6564 98.1969 49.6644C98.2079 49.6723 98.2203 49.678 98.2334 49.6811C98.2492 49.6812 98.2648 49.6782 98.2795 49.6724Z" fill="#263238"/>
<path d="M103.055 46.686C102.139 47.2658 102.499 48.3007 104.443 49.9994C105.307 48.9674 105.532 46.9005 104.904 46.3526C104.276 45.8047 103.853 46.1932 103.055 46.686Z" fill="#263238"/>
<path d="M105.713 49.8603C105.681 50.4114 105.434 50.9273 105.025 51.2952C104.477 51.7764 103.893 51.359 103.783 50.6778C103.683 50.0603 103.85 49.0689 104.524 48.8515C104.672 48.8047 104.829 48.7963 104.981 48.827C105.133 48.8577 105.275 48.9265 105.393 49.0271C105.512 49.1277 105.604 49.2568 105.659 49.4024C105.715 49.5481 105.734 49.7056 105.713 49.8603Z" fill="#E4897B"/>
<path d="M100.708 52.1798C100.853 52.3977 100.984 52.6255 101.099 52.8614L101.232 52.8208C101.828 52.6323 102.044 52.348 102.096 52.0899C102.128 51.8909 102.093 51.6868 101.998 51.5098C101.681 51.7904 101.308 51.9992 100.903 52.1218L100.708 52.1798Z" fill="#263238"/>
<path d="M100.909 52.1189L101.03 52.3161C101.591 52.1392 101.963 51.9362 102.083 51.7099C102.065 51.639 102.038 51.5707 102.003 51.5069C101.686 51.7875 101.313 51.9963 100.909 52.1189Z" fill="white"/>
<path d="M101.232 52.8263C101.828 52.6378 102.044 52.3535 102.095 52.0954C101.87 52.1698 101.659 52.2848 101.474 52.4348C101.354 52.5364 101.27 52.6734 101.232 52.8263Z" fill="#A24E3F"/>
<path d="M104.892 46.6716C104.892 46.6716 105.422 45.8019 104.285 44.9323C103.147 44.0626 101.768 44.9323 101.768 44.9323C101.768 44.9323 101.534 44.7062 100.708 44.5409C99.8812 44.3757 98.758 45.5555 98.0755 45.8367C97.3929 46.1179 96.6902 46.8629 97.0502 47.7616C97.4102 48.6602 96.3273 50.7271 97.943 50.4952C97.7967 50.423 97.6835 50.297 97.6267 50.1433C97.57 49.9896 97.5739 49.8199 97.6377 49.669C97.8278 49.0602 98.5017 49.0429 98.5247 47.7818C98.5478 46.5208 99.7315 47.318 99.7315 47.318C99.7315 47.318 100.106 46.7383 100.619 46.7875C101.131 46.8368 102.024 47.234 102.148 48.8167C102.272 50.3995 103.484 50.8025 104.53 49.869C105.575 48.9356 105.785 48.953 105.97 49.4226C105.97 49.4226 106.367 48.7385 105.512 48.5124C104.656 48.2863 104.57 47.1325 104.892 46.6716Z" fill="#263238"/>
<path d="M106.297 56.977L109.906 59.6816C109.906 59.6816 112.478 56.7828 110.998 54.5246C109.517 52.2664 106.297 56.977 106.297 56.977Z" fill="#407BFF"/>
<path opacity="0.5" d="M106.297 56.977L109.906 59.6816C109.906 59.6816 112.478 56.7828 110.998 54.5246C109.517 52.2664 106.297 56.977 106.297 56.977Z" fill="white"/>
</svg>
