<svg width="144" height="108" viewBox="0 0 144 108" fill="none" xmlns="http://www.w3.org/2000/svg">
<path d="M144 94.9087H0V94.9812H144V94.9087Z" fill="#E0E0E0"/>
<path d="M108.766 97.9786H98.8589V98.0511H108.766V97.9786Z" fill="#E0E0E0"/>
<path d="M31.9795 98.0134H26.4038V98.0859H31.9795V98.0134Z" fill="#E0E0E0"/>
<path d="M72.2879 97.8453H60.9868V97.9178H72.2879V97.8453Z" fill="#E0E0E0"/>
<path d="M60.699 96.8133H55.6475V96.8858H60.699V96.8133Z" fill="#E0E0E0"/>
<path d="M122.273 96.851H107.012V96.9235H122.273V96.851Z" fill="#E0E0E0"/>
<path d="M68.2564 81.9798H12.6465C12.2108 81.979 11.7933 81.8043 11.4855 81.494C11.1777 81.1836 11.0049 80.7631 11.0049 80.3246V1.64076C11.0087 1.20477 11.1832 0.787905 11.4906 0.480695C11.7979 0.173485 12.2133 0.000746859 12.6465 0H68.2564C68.6926 0 69.1108 0.174392 69.4192 0.484812C69.7276 0.795231 69.9009 1.21625 69.9009 1.65525V80.3246C69.9009 80.7636 69.7276 81.1846 69.4192 81.495C69.1108 81.8054 68.6926 81.9798 68.2564 81.9798ZM12.6465 0.0579775C12.2299 0.0587454 11.8307 0.22584 11.5364 0.522586C11.2422 0.819331 11.0769 1.22148 11.0769 1.64076V80.3246C11.0769 80.7438 11.2422 81.146 11.5364 81.4427C11.8307 81.7395 12.2299 81.9066 12.6465 81.9073H68.2564C68.6732 81.9066 69.0727 81.7396 69.3675 81.4429C69.6622 81.1462 69.8281 80.7441 69.8289 80.3246V1.64076C69.8281 1.22121 69.6622 0.819071 69.3675 0.522409C69.0727 0.225746 68.6732 0.0587438 68.2564 0.0579775H12.6465Z" fill="#E0E0E0"/>
<path d="M130.554 81.9798H74.9407C74.5048 81.979 74.087 81.8044 73.7788 81.4942C73.4705 81.1839 73.297 80.7633 73.2963 80.3246V1.64076C73.3008 1.20451 73.476 0.787643 73.7838 0.480513C74.0916 0.173383 74.5073 0.000738714 74.9407 0H130.554C130.986 0.00150871 131.401 0.174584 131.708 0.481712C132.014 0.78884 132.188 1.20528 132.192 1.64076V80.3246C132.192 80.7626 132.02 81.1827 131.713 81.493C131.405 81.8032 130.989 81.9783 130.554 81.9798ZM74.9407 0.0579775C74.5239 0.0587438 74.1244 0.225746 73.8297 0.522409C73.5349 0.819071 73.369 1.22121 73.3683 1.64076V80.3246C73.369 80.7441 73.5349 81.1462 73.8297 81.4429C74.1244 81.7396 74.5239 81.9066 74.9407 81.9073H130.554C130.97 81.9066 131.37 81.7396 131.665 81.4429C131.959 81.1462 132.125 80.7441 132.126 80.3246V1.64076C132.125 1.22121 131.959 0.819071 131.665 0.522409C131.37 0.225746 130.97 0.0587438 130.554 0.0579775H74.9407Z" fill="#E0E0E0"/>
<path d="M126.521 58.6237C122.979 53.1941 126.213 47.3587 125.675 41.3174C125.136 35.2762 119.434 33.9601 120.514 28.8523C121.764 22.9155 118.431 17.2192 114.656 17.2192C110.88 17.2192 107.551 22.901 108.801 28.8436C109.881 33.9601 104.193 35.2791 103.64 41.3088C103.087 47.3384 106.335 53.1941 102.79 58.615C99.2448 64.0358 100.178 71.2337 102.174 74.8022C102.705 75.7491 103.345 76.6296 104.08 77.4257C105.433 78.8873 107.07 80.0528 108.89 80.8498C110.709 81.6468 112.673 82.0581 114.657 82.0581C116.642 82.0581 118.605 81.6468 120.425 80.8498C122.244 80.0528 123.881 78.8873 125.234 77.4257C125.968 76.6288 126.607 75.7483 127.138 74.8022C129.136 71.2424 130.067 64.0648 126.521 58.6237Z" fill="#E0E0E0"/>
<path d="M114.656 62.743C114.891 62.743 115.124 62.7896 115.341 62.8802C115.558 62.9709 115.756 63.1037 115.922 63.2711C116.089 63.4385 116.221 63.6373 116.311 63.8561C116.401 64.0748 116.447 64.3093 116.447 64.5461V94.9088H112.864V64.5461C112.864 64.3093 112.911 64.0748 113.001 63.8561C113.091 63.6373 113.223 63.4385 113.389 63.2711C113.555 63.1037 113.753 62.9709 113.97 62.8802C114.187 62.7896 114.42 62.743 114.656 62.743Z" fill="#F0F0F0"/>
<path d="M92.1342 94.9088H87.2642V64.549C87.2657 63.8983 87.5232 63.2747 87.9803 62.8145C88.4375 62.3544 89.057 62.0952 89.7035 62.0937C90.35 62.0952 90.9696 62.3544 91.4267 62.8145C91.8839 63.2747 92.1414 63.8983 92.1429 64.549L92.1342 94.9088Z" fill="#E0E0E0"/>
<path d="M89.6949 86.7195C97.9929 86.7195 104.72 79.9485 104.72 71.5961C104.72 63.2437 97.9929 56.4727 89.6949 56.4727C81.3968 56.4727 74.6699 63.2437 74.6699 71.5961C74.6699 79.9485 81.3968 86.7195 89.6949 86.7195Z" fill="#F0F0F0"/>
<path d="M107.35 67.0579C108.139 63.8633 106.205 60.6303 103.031 59.8368C99.8575 59.0433 96.6455 60.9897 95.8572 64.1842C95.0688 67.3788 97.0025 70.6118 100.176 71.4053C103.35 72.1989 106.562 70.2525 107.35 67.0579Z" fill="#F0F0F0"/>
<path d="M81.0002 62.6588C81.3114 60.7357 80.0148 58.9228 78.1042 58.6097C76.1937 58.2965 74.3926 59.6015 74.0815 61.5246C73.7703 63.4477 75.0669 65.2605 76.9775 65.5737C78.888 65.8869 80.6891 64.5819 81.0002 62.6588Z" fill="#F0F0F0"/>
<path d="M81.3541 62.743C82.7124 62.743 83.8136 61.6346 83.8136 60.2674C83.8136 58.9001 82.7124 57.7917 81.3541 57.7917C79.9957 57.7917 78.8945 58.9001 78.8945 60.2674C78.8945 61.6346 79.9957 62.743 81.3541 62.743Z" fill="#F0F0F0"/>
<path d="M58.7519 76.788C56.4155 77.1382 54.1827 77.9958 52.2085 79.3013C52.1912 77.0054 51.7736 74.8283 50.7023 73.0687C49.0722 74.666 47.7503 76.7358 46.6703 78.9621C46.2757 74.7906 45.1842 70.7322 42.7679 68.1609C39.1477 70.4539 37.2815 74.2746 36.3944 78.3214C34.929 75.5928 32.802 73.2813 30.2111 71.6019C27.9964 73.95 27.2879 77.1967 27.3484 80.5246C24.8312 77.5735 22.0376 75.2718 19.3132 75.0023C18.6421 79.6665 20.0706 84.067 21.8879 87.5456C23.0677 89.7775 24.8303 91.643 26.9857 92.941C29.1411 94.239 31.6075 94.9204 34.1192 94.9116H45.9532C50.996 94.9116 55.725 92.2041 58.0895 87.7196C59.5842 84.8787 60.2984 81.2232 58.7519 76.788Z" fill="#E0E0E0"/>
<path d="M55.3707 16.564C56.8309 12.2534 55.6587 9.1835 52.0962 9.1835C49.8555 9.1835 47.0763 10.3923 44.3691 12.3578C44.0639 11.2359 43.2027 10.5663 41.8175 10.5663C39.3781 10.5663 36.0171 12.6418 33.3819 15.5697C32.64 14.8602 31.6578 14.4612 30.6344 14.4536C28.2987 14.3203 25.4735 15.5146 23.0168 17.454C22.8937 17.2805 22.7312 17.1393 22.5428 17.0419C22.3545 16.9446 22.1457 16.8941 21.9339 16.8945C20.589 16.8191 18.7659 18.025 17.8645 19.5846C17.8098 19.6803 17.7608 19.7759 17.709 19.8745H56.0792C56.1944 18.512 55.9554 17.3757 55.3707 16.564Z" fill="#F0F0F0"/>
<path d="M55.4894 42.738C56.2037 40.6334 55.6363 39.1347 53.891 39.1347C52.7938 39.1347 51.4373 39.7144 50.1154 40.6856C50.0442 40.415 49.8795 40.1789 49.651 40.0195C49.4224 39.8602 49.145 39.788 48.8683 39.8159C47.6789 39.8159 46.0373 40.8305 44.747 42.2625C44.3854 41.9148 43.9051 41.7198 43.405 41.7176C42.253 41.6509 40.885 42.2336 39.684 43.1815C39.6258 43.0977 39.5488 43.0288 39.4592 42.9805C39.3697 42.9321 39.2701 42.9056 39.1685 42.9032C38.5118 42.8655 37.6219 43.454 37.1813 44.2164L37.1035 44.3555H55.8466C55.9249 43.7906 55.7981 43.2163 55.4894 42.738Z" fill="#F0F0F0"/>
<path d="M98.7177 26.8116C98.5698 26.7907 98.4207 26.78 98.2713 26.7797C98.4096 24.6781 97.6118 23.333 95.904 23.333C94.6742 23.333 93.1622 24.0345 91.6243 25.2201C92.0649 21.1385 90.6537 18.4861 87.4569 18.4861C84.8822 18.4861 81.6192 20.2254 78.3965 23.0257C78.1085 21.4255 77.1638 20.4631 75.5683 20.4631C72.7661 20.4631 68.783 23.4315 65.5891 27.6175C65.2251 27.1348 64.7584 26.7403 64.2232 26.4629C63.6879 26.1855 63.0977 26.0323 62.496 26.0144C59.8291 25.826 56.5142 27.5305 53.568 30.3076C53.4608 30.0735 53.2902 29.8744 53.0757 29.7334C52.8612 29.5924 52.6116 29.5151 52.3555 29.5105C50.8953 29.4061 48.8995 30.9396 47.7158 32.9891H101.065C102.318 29.8815 101.321 27.1624 98.7177 26.8116Z" fill="#F0F0F0"/>
<path d="M71.9995 108C102.839 108 127.84 106.531 127.84 104.718C127.84 102.906 102.839 101.437 71.9995 101.437C41.1597 101.437 16.1592 102.906 16.1592 104.718C16.1592 106.531 41.1597 108 71.9995 108Z" fill="#F5F5F5"/>
<path d="M14.0718 27.7014L79.7271 37.2155L88.537 46.1643L14.0718 27.7014Z" fill="#407BFF"/>
<path opacity="0.6" d="M14.0718 27.7014L79.7271 37.2155L88.537 46.1643L14.0718 27.7014Z" fill="white"/>
<path d="M14.0718 27.7014L79.7271 37.2155L76.6801 50.156L14.0718 27.7014Z" fill="#407BFF"/>
<path opacity="0.2" d="M14.0718 27.7014L79.7271 37.2155L76.6801 50.156L14.0718 27.7014Z" fill="black"/>
<path d="M75.3322 12.7202L79.1424 30.6932C79.2415 31.1625 79.1517 31.6522 78.8925 32.0549C78.6333 32.4576 78.2261 32.7404 77.76 32.8412L43.753 40.1464C43.2868 40.2453 42.8006 40.1545 42.4007 39.8938C42.0009 39.6331 41.7198 39.2236 41.6189 38.7549L37.8058 20.782C37.7075 20.3123 37.7981 19.8226 38.0578 19.42C38.3174 19.0174 38.7249 18.7348 39.1911 18.6339L73.1981 11.3288C73.6647 11.2299 74.1512 11.3211 74.5512 11.5824C74.9511 11.8437 75.232 12.2539 75.3322 12.7231V12.7202Z" fill="#407BFF"/>
<path opacity="0.4" d="M75.3322 12.7202L79.1424 30.6932C79.2415 31.1625 79.1517 31.6522 78.8925 32.0549C78.6333 32.4576 78.2261 32.7404 77.76 32.8412L43.753 40.1464C43.2868 40.2453 42.8006 40.1545 42.4007 39.8938C42.0009 39.6331 41.7198 39.2236 41.6189 38.7549L37.8058 20.782C37.7075 20.3123 37.7981 19.8226 38.0578 19.42C38.3174 19.0174 38.7249 18.7348 39.1911 18.6339L73.1981 11.3288C73.6647 11.2299 74.1512 11.3211 74.5512 11.5824C74.9511 11.8437 75.232 12.2539 75.3322 12.7231V12.7202Z" fill="black"/>
<path d="M74.4941 11.5433L63.1325 25.5825C62.0788 26.8841 60.6152 27.7847 58.9839 28.1352C57.3525 28.4858 55.6512 28.2653 54.1613 27.5102L38.0938 19.3644C38.3537 18.9885 38.746 18.7263 39.191 18.631L73.1981 11.3259C73.6418 11.2308 74.1049 11.3085 74.4941 11.5433Z" fill="#407BFF"/>
<path d="M14.0718 27.7014L68.2244 40.6565L76.6801 50.156L14.0718 27.7014Z" fill="#407BFF"/>
<path opacity="0.6" d="M14.0718 27.7014L68.2244 40.6565L76.6801 50.156L14.0718 27.7014Z" fill="white"/>
<path d="M33.8257 40.1884L33.6802 40.4385L39.7064 43.9916L39.852 43.7415L33.8257 40.1884Z" fill="#407BFF"/>
<path d="M42.5118 45.3079L42.3662 45.558L44.5332 46.8356L44.6787 46.5855L42.5118 45.3079Z" fill="#407BFF"/>
<path d="M14.0718 27.7014L68.2244 40.6565L57.698 53.4259L14.0718 27.7014Z" fill="#407BFF"/>
<path d="M86.5038 58.0526C86.4308 58.0528 86.3585 58.039 86.2907 58.012L77.4721 54.4986C77.331 54.4414 77.2181 54.3303 77.1581 54.1896C77.0981 54.049 77.0957 53.8901 77.1516 53.7477C77.2075 53.6053 77.3171 53.491 77.4565 53.4296C77.5958 53.3683 77.7536 53.3649 77.8955 53.4202L86.7169 56.9336C86.8417 56.9833 86.9454 57.0752 87.01 57.1936C87.0746 57.3119 87.0962 57.4493 87.0709 57.582C87.0456 57.7146 86.9751 57.8342 86.8716 57.9202C86.7681 58.0061 86.638 58.0529 86.5038 58.0526Z" fill="#407BFF"/>
<path opacity="0.3" d="M86.5038 58.0526C86.4308 58.0528 86.3585 58.039 86.2907 58.012L77.4721 54.4986C77.331 54.4414 77.2181 54.3303 77.1581 54.1896C77.0981 54.049 77.0957 53.8901 77.1516 53.7477C77.2075 53.6053 77.3171 53.491 77.4565 53.4296C77.5958 53.3683 77.7536 53.3649 77.8955 53.4202L86.7169 56.9336C86.8417 56.9833 86.9454 57.0752 87.01 57.1936C87.0746 57.3119 87.0962 57.4493 87.0709 57.582C87.0456 57.7146 86.9751 57.8342 86.8716 57.9202C86.7681 58.0061 86.638 58.0529 86.5038 58.0526Z" fill="black"/>
<path d="M85.9822 52.9621C85.91 52.9617 85.8385 52.9469 85.772 52.9186L81.0344 51.0199C80.9635 50.9923 80.8988 50.9508 80.844 50.8979C80.7891 50.845 80.7452 50.7817 80.7148 50.7117C80.6843 50.6416 80.668 50.5662 80.6666 50.4897C80.6652 50.4133 80.6789 50.3373 80.7068 50.2662C80.7347 50.1951 80.7763 50.1303 80.8293 50.0754C80.8822 50.0206 80.9454 49.9768 81.0151 49.9466C81.0849 49.9164 81.16 49.9004 81.2359 49.8996C81.3119 49.8987 81.3873 49.9129 81.4577 49.9415L86.1953 51.8316C86.3373 51.8878 86.4513 51.9985 86.5123 52.1392C86.5733 52.28 86.5764 52.4394 86.5208 52.5824C86.4802 52.6934 86.4069 52.7893 86.3106 52.8572C86.2143 52.9251 86.0997 52.9617 85.9822 52.9621Z" fill="#407BFF"/>
<path opacity="0.5" d="M85.9822 52.9621C85.91 52.9617 85.8385 52.9469 85.772 52.9186L81.0344 51.0199C80.9635 50.9923 80.8988 50.9508 80.844 50.8979C80.7891 50.845 80.7452 50.7817 80.7148 50.7117C80.6843 50.6416 80.668 50.5662 80.6666 50.4897C80.6652 50.4133 80.6789 50.3373 80.7068 50.2662C80.7347 50.1951 80.7763 50.1303 80.8293 50.0754C80.8822 50.0206 80.9454 49.9768 81.0151 49.9466C81.0849 49.9164 81.16 49.9004 81.2359 49.8996C81.3119 49.8987 81.3873 49.9129 81.4577 49.9415L86.1953 51.8316C86.3373 51.8878 86.4513 51.9985 86.5123 52.1392C86.5733 52.28 86.5764 52.4394 86.5208 52.5824C86.4802 52.6934 86.4069 52.7893 86.3106 52.8572C86.2143 52.9251 86.0997 52.9617 85.9822 52.9621Z" fill="white"/>
<path d="M76.0781 57.9771C76.0062 57.9763 75.935 57.9626 75.8679 57.9366L67.2653 54.4985C67.1945 54.4709 67.1298 54.4294 67.0749 54.3765C67.0201 54.3236 66.9762 54.2603 66.9457 54.1903C66.9153 54.1202 66.8989 54.0448 66.8976 53.9684C66.8962 53.8919 66.9099 53.8159 66.9378 53.7448C66.9657 53.6737 67.0073 53.6089 67.0602 53.554C67.1131 53.4992 67.1763 53.4554 67.2461 53.4252C67.3159 53.395 67.3909 53.379 67.4669 53.3782C67.5428 53.3773 67.6182 53.3916 67.6887 53.4201L76.2912 56.8466C76.416 56.8962 76.5197 56.9882 76.5843 57.1065C76.649 57.2249 76.6705 57.3623 76.6452 57.4949C76.62 57.6276 76.5495 57.7472 76.4459 57.8331C76.3424 57.919 76.2123 57.9659 76.0781 57.9655V57.9771Z" fill="#407BFF"/>
<path opacity="0.3" d="M76.0781 57.9771C76.0062 57.9763 75.935 57.9626 75.8679 57.9366L67.2653 54.4985C67.1945 54.4709 67.1298 54.4294 67.0749 54.3765C67.0201 54.3236 66.9762 54.2603 66.9457 54.1903C66.9153 54.1202 66.8989 54.0448 66.8976 53.9684C66.8962 53.8919 66.9099 53.8159 66.9378 53.7448C66.9657 53.6737 67.0073 53.6089 67.0602 53.554C67.1131 53.4992 67.1763 53.4554 67.2461 53.4252C67.3159 53.395 67.3909 53.379 67.4669 53.3782C67.5428 53.3773 67.6182 53.3916 67.6887 53.4201L76.2912 56.8466C76.416 56.8962 76.5197 56.9882 76.5843 57.1065C76.649 57.2249 76.6705 57.3623 76.6452 57.4949C76.62 57.6276 76.5495 57.7472 76.4459 57.8331C76.3424 57.919 76.2123 57.9659 76.0781 57.9655V57.9771Z" fill="black"/>
<path d="M107.222 31.8354C107.986 33.3341 108.686 34.8357 109.351 36.3721C110.016 37.9085 110.635 39.4652 111.177 41.0972L111.373 41.7147C111.407 41.8248 111.456 42.0046 111.485 42.1321C111.514 42.2597 111.54 42.4046 111.554 42.5264C111.62 42.994 111.654 43.4657 111.655 43.9381C111.659 44.8093 111.619 45.6801 111.534 46.5471C111.373 48.2254 111.111 49.8924 110.75 51.5389L109.169 51.3621C109.149 49.73 109.135 48.0806 109.077 46.4717C109.051 45.6716 109.005 44.8686 108.925 44.1149C108.888 43.761 108.83 43.4096 108.752 43.0626C108.737 42.9815 108.714 42.9206 108.697 42.8539C108.68 42.7873 108.662 42.7641 108.634 42.6771L108.415 42.1292C107.813 40.6624 107.136 39.184 106.445 37.7113L104.354 33.2935L107.222 31.8354Z" fill="#E4897B"/>
<path d="M109.192 50.8519L108.455 52.2404L110.811 52.9014C110.811 52.9014 111.26 51.7853 110.725 50.904L109.192 50.8519Z" fill="#E4897B"/>
<path d="M107.553 54.2407L109.719 54.4146L110.811 52.9014L108.455 52.2405L107.553 54.2407Z" fill="#E4897B"/>
<path d="M97.3061 21.8168C97.2745 21.9879 97.1564 22.1067 97.0469 22.0835C96.9375 22.0603 96.877 21.9067 96.9116 21.7386C96.9461 21.5704 97.0613 21.4487 97.1708 21.4719C97.2802 21.4951 97.3436 21.6487 97.3061 21.8168Z" fill="#263238"/>
<path d="M97.174 22.1067C96.8699 22.581 96.5026 23.0111 96.0825 23.3851C96.1806 23.4901 96.3001 23.5725 96.4329 23.6265C96.5656 23.6806 96.7084 23.705 96.8515 23.6982L97.174 22.1067Z" fill="#DE5753"/>
<path d="M98.107 21.008C98.0798 21.0073 98.0539 20.9959 98.035 20.9761C97.9523 20.8809 97.8484 20.8066 97.7318 20.7592C97.6153 20.7119 97.4892 20.6929 97.364 20.7036C97.3401 20.7039 97.317 20.6956 97.2986 20.6802C97.2802 20.6649 97.2679 20.6435 97.2637 20.6198C97.2596 20.5962 97.2639 20.5718 97.2759 20.551C97.288 20.5303 97.3069 20.5145 97.3294 20.5065C97.4896 20.4861 97.6523 20.5058 97.803 20.564C97.9538 20.6222 98.0879 20.7169 98.1934 20.8399C98.2119 20.8589 98.2222 20.8844 98.2222 20.9109C98.2222 20.9375 98.2119 20.963 98.1934 20.9819C98.1819 20.9926 98.1682 21.0004 98.1532 21.0049C98.1382 21.0095 98.1225 21.0105 98.107 21.008Z" fill="#263238"/>
<path d="M102.07 24.1852C101.767 25.7448 101.465 28.5972 102.548 29.6379C102.548 29.6379 102.125 31.2178 99.2474 31.2178C96.0794 31.2178 97.7383 29.6379 97.7383 29.6379C99.4663 29.2234 99.4173 27.9334 99.1178 26.7246L102.07 24.1852Z" fill="#E4897B"/>
<path d="M102.983 30.6206C103.21 29.8582 103.461 28.9857 102.942 28.7103C102.366 28.4204 99.2358 28.1015 98.1558 28.6668C97.0758 29.2321 97.3839 30.783 97.3839 30.783L102.983 30.6206Z" fill="#263238"/>
<path d="M109.624 102.91C109.535 102.922 109.444 102.915 109.357 102.892C109.27 102.868 109.188 102.827 109.117 102.77C109.092 102.735 109.079 102.693 109.079 102.65C109.079 102.607 109.092 102.565 109.117 102.53C109.134 102.5 109.156 102.474 109.184 102.453C109.211 102.433 109.242 102.418 109.276 102.411C109.587 102.341 110.168 102.742 110.194 102.759C110.202 102.765 110.208 102.773 110.211 102.782C110.215 102.792 110.216 102.801 110.214 102.811C110.213 102.82 110.208 102.829 110.202 102.836C110.195 102.843 110.186 102.847 110.177 102.849C109.995 102.888 109.81 102.909 109.624 102.91ZM109.359 102.504H109.299C109.279 102.508 109.261 102.516 109.245 102.528C109.229 102.54 109.216 102.556 109.206 102.573C109.16 102.655 109.189 102.689 109.206 102.701C109.296 102.823 109.728 102.823 110.045 102.77C109.838 102.633 109.604 102.544 109.359 102.51V102.504Z" fill="#407BFF"/>
<path d="M110.166 102.857H110.143C109.924 102.736 109.5 102.278 109.544 102.034C109.551 101.997 109.571 101.963 109.6 101.938C109.63 101.914 109.667 101.901 109.705 101.901C109.743 101.897 109.781 101.9 109.818 101.911C109.854 101.922 109.888 101.94 109.918 101.965C110.163 102.168 110.206 102.782 110.206 102.808C110.207 102.817 110.206 102.827 110.202 102.835C110.197 102.843 110.191 102.85 110.183 102.855C110.177 102.857 110.172 102.858 110.166 102.857ZM109.739 101.988H109.728C109.662 101.988 109.656 102.028 109.653 102.04C109.627 102.182 109.898 102.533 110.114 102.698C110.099 102.456 110.013 102.224 109.866 102.031C109.847 102.016 109.825 102.005 109.801 101.998C109.777 101.992 109.752 101.99 109.728 101.994L109.739 101.988Z" fill="#407BFF"/>
<path d="M96.9204 102.91C96.6497 102.91 96.3876 102.872 96.2983 102.75C96.2758 102.718 96.2637 102.679 96.2637 102.64C96.2637 102.601 96.2758 102.562 96.2983 102.53C96.3158 102.5 96.3391 102.474 96.3668 102.454C96.3946 102.433 96.4261 102.419 96.4596 102.411C96.8081 102.315 97.5511 102.739 97.5828 102.756C97.5913 102.761 97.598 102.769 97.6021 102.779C97.6062 102.788 97.6075 102.798 97.6059 102.808C97.6042 102.818 97.5994 102.828 97.5922 102.835C97.5849 102.842 97.5756 102.847 97.5655 102.849C97.3528 102.889 97.1369 102.909 96.9204 102.91ZM96.5835 102.498C96.5519 102.493 96.5199 102.493 96.4884 102.498C96.4682 102.502 96.449 102.51 96.4321 102.522C96.4152 102.534 96.401 102.55 96.3905 102.568C96.3531 102.631 96.3675 102.66 96.3905 102.678C96.4855 102.811 97.0212 102.82 97.4187 102.765C97.1597 102.624 96.876 102.535 96.5835 102.504V102.498Z" fill="#407BFF"/>
<path d="M97.56 102.857H97.5398C97.2835 102.744 96.7795 102.278 96.8169 102.043C96.8169 101.985 96.8659 101.915 97.0041 101.901C97.0555 101.893 97.108 101.897 97.1578 101.912C97.2076 101.927 97.2535 101.953 97.2921 101.988C97.5628 102.208 97.6176 102.782 97.6204 102.808C97.6216 102.817 97.6203 102.826 97.6167 102.834C97.6132 102.842 97.6075 102.849 97.6003 102.855C97.5941 102.858 97.5874 102.86 97.5804 102.86C97.5735 102.861 97.5665 102.86 97.56 102.857ZM97.0444 101.988H97.0128C96.9235 101.988 96.9177 102.034 96.9148 102.046C96.8918 102.191 97.2374 102.553 97.4908 102.71C97.4659 102.466 97.3651 102.237 97.2028 102.054C97.1617 102.019 97.1102 101.997 97.056 101.994L97.0444 101.988Z" fill="#407BFF"/>
<path d="M99.8871 102.805H97.7703L97.5601 97.8743H99.6769L99.8871 102.805Z" fill="#E4897B"/>
<path d="M112.591 102.805H110.474L109.411 97.8743H111.525L112.591 102.805Z" fill="#E4897B"/>
<path d="M110.324 102.559H112.7C112.743 102.559 112.784 102.574 112.817 102.601C112.85 102.628 112.873 102.665 112.882 102.707L113.299 104.6C113.309 104.646 113.308 104.693 113.297 104.739C113.285 104.785 113.264 104.827 113.234 104.864C113.204 104.9 113.167 104.929 113.124 104.948C113.082 104.968 113.035 104.977 112.988 104.977C112.159 104.962 111.756 104.913 110.71 104.913C110.068 104.913 108.743 104.982 107.853 104.982C106.963 104.982 106.851 104.113 107.214 104.017C108.844 103.658 109.458 103.162 109.979 102.692C110.073 102.606 110.197 102.558 110.324 102.559Z" fill="#263238"/>
<path d="M97.7848 102.559H100.089C100.131 102.559 100.172 102.574 100.205 102.601C100.238 102.628 100.261 102.665 100.27 102.707L100.688 104.6C100.698 104.645 100.697 104.693 100.687 104.738C100.676 104.784 100.655 104.826 100.626 104.862C100.596 104.899 100.559 104.928 100.517 104.947C100.475 104.967 100.429 104.977 100.383 104.977C99.5502 104.962 98.3464 104.913 97.298 104.913C96.074 104.913 95.0142 104.982 93.5771 104.982C92.7131 104.982 92.4683 104.113 92.8312 104.017C94.4872 103.652 95.8379 103.614 97.2692 102.727C97.4217 102.623 97.6005 102.564 97.7848 102.559Z" fill="#263238"/>
<path d="M96.7683 33.3775C94.9991 33.2395 93.2388 33.0044 91.4951 32.6731C90.6311 32.5049 89.7498 32.3165 88.8743 32.0788C87.9769 31.8476 87.0956 31.5571 86.2362 31.2091C86.0144 31.1164 85.7898 31.0149 85.568 30.9193C85.3184 30.7955 85.0778 30.654 84.848 30.496C84.4333 30.2206 84.0762 29.9336 83.7219 29.6496C83.0163 29.0698 82.3626 28.49 81.7059 27.8957C80.4186 26.6956 79.1975 25.4549 78.0195 24.1504L79.0794 22.959L83.2583 25.9825C83.9466 26.4811 84.6435 26.971 85.329 27.4319C85.6688 27.6609 86.0173 27.8755 86.337 28.0581C86.4706 28.1348 86.6092 28.2026 86.7517 28.261C86.9216 28.3277 87.0944 28.3944 87.2759 28.4581C88.8324 28.9406 90.4242 29.2992 92.0365 29.5307C93.681 29.7916 95.3802 30.0061 97.0218 30.18L96.7683 33.3775Z" fill="#E4897B"/>
<path d="M106.335 30.1192C108.32 30.5772 110.324 36.4126 110.324 36.4126L106.243 39.3607C106.243 39.3607 105.091 36.6416 103.98 34.2645C102.816 31.7744 104.308 29.6525 106.335 30.1192Z" fill="#407BFF"/>
<path opacity="0.4" d="M106.335 30.1192C108.32 30.5772 110.324 36.4126 110.324 36.4126L106.243 39.3607C106.243 39.3607 105.091 36.6416 103.98 34.2645C102.816 31.7744 104.308 29.6525 106.335 30.1192Z" fill="black"/>
<path d="M105.192 33.3079L104.382 35.1313C105.22 36.9518 105.986 38.7549 106.191 39.2361C106.162 37.0822 105.756 34.4095 105.192 33.3079Z" fill="#407BFF"/>
<path opacity="0.6" d="M105.192 33.3079L104.382 35.1313C105.22 36.9518 105.986 38.7549 106.191 39.2361C106.162 37.0822 105.756 34.4095 105.192 33.3079Z" fill="black"/>
<path d="M94.4839 30.2293C94.4839 30.2293 92.2318 32.789 94.3572 48.6371H105.673C105.753 46.8977 104.662 38.3577 106.335 30.1191C105.084 29.8767 103.819 29.716 102.548 29.6379C100.946 29.5451 99.3402 29.5451 97.7383 29.6379C96.6399 29.7493 95.5517 29.947 94.4839 30.2293Z" fill="#407BFF"/>
<path opacity="0.4" d="M94.4839 30.2293C94.4839 30.2293 92.2318 32.789 94.3572 48.6371H105.673C105.753 46.8977 104.662 38.3577 106.335 30.1191C105.084 29.8767 103.819 29.716 102.548 29.6379C100.946 29.5451 99.3402 29.5451 97.7383 29.6379C96.6399 29.7493 95.5517 29.947 94.4839 30.2293Z" fill="black"/>
<path d="M93.6455 33.3079C93.5706 33.908 93.513 34.6182 93.4756 35.456C94.5931 35.1184 95.6548 34.6163 96.6263 33.9659L93.6455 33.3079Z" fill="#407BFF"/>
<path opacity="0.6" d="M93.6455 33.3079C93.5706 33.908 93.513 34.6182 93.4756 35.456C94.5931 35.1184 95.6548 34.6163 96.6263 33.9659L93.6455 33.3079Z" fill="black"/>
<path d="M98.4958 33.6268C96.9809 34.9777 91.1979 34.8414 91.1979 34.8414L91.0078 29.2061C92.9607 29.486 94.9306 29.6294 96.9032 29.6351C100.126 29.5684 100.149 32.1368 98.4958 33.6268Z" fill="#407BFF"/>
<path opacity="0.4" d="M98.4958 33.6268C96.9809 34.9777 91.1979 34.8414 91.1979 34.8414L91.0078 29.2061C92.9607 29.486 94.9306 29.6294 96.9032 29.6351C100.126 29.5684 100.149 32.1368 98.4958 33.6268Z" fill="black"/>
<path d="M79.1334 22.9706L77.6934 21.2632L76.1411 23.0025C76.1411 23.0025 77.0973 24.62 78.615 24.3649L79.1334 22.9706Z" fill="#E4897B"/>
<path d="M75.6315 19.2716L75.0728 21.5008L76.1297 22.9908L77.682 21.2631L75.6315 19.2716Z" fill="#E4897B"/>
<path d="M97.5601 97.8771L97.6695 100.417H99.7863L99.6769 97.8771H97.5601Z" fill="#CE6F64"/>
<path d="M111.528 97.8771H109.411L109.958 100.417H112.075L111.528 97.8771Z" fill="#CE6F64"/>
<path d="M98.8325 19.7123C96.9346 18.8426 96.3355 14.9784 101.796 15.9438C101.796 15.9438 100.972 16.8598 102.643 17.4396C104.313 18.0193 102.916 21.5994 98.8325 19.7123Z" fill="#263238"/>
<path d="M102.956 22.6111C102.412 24.6403 102.199 25.8752 100.94 26.7246C99.0569 28.0001 96.7155 26.5362 96.6406 24.3707C96.5744 22.4256 97.4758 19.4137 99.6502 19.002C100.13 18.9073 100.626 18.9379 101.091 19.091C101.556 19.2441 101.974 19.5144 102.306 19.8764C102.637 20.2383 102.871 20.6796 102.985 21.1584C103.099 21.6371 103.089 22.1373 102.956 22.6111Z" fill="#E4897B"/>
<path d="M101.721 16.9583C103.014 17.683 104.766 18.1179 104.601 19.1498C104.385 20.4109 105.658 19.6224 105.362 21.4979C105.169 22.7241 102.922 26.4405 101.33 26.2608C98.9508 25.9709 99.2532 22.3299 99.2446 20.4109C99.2388 19.2774 99.187 15.5292 101.721 16.9583Z" fill="#263238"/>
<path d="M98.9597 18.5846C98.3837 18.7209 97.6205 22.0632 99.8525 22.3705C102.419 22.7213 98.9597 18.5846 98.9597 18.5846Z" fill="#263238"/>
<path d="M99.0172 19.7703C98.3116 19.834 96.7132 18.9789 96.9091 17.6918C96.9091 17.6831 97.92 19.1963 99.0172 19.7703Z" fill="#263238"/>
<path d="M100.065 22.6372C99.8488 23.1152 99.4812 23.5076 99.0199 23.7533C98.4122 24.0721 98.0695 23.6083 98.2077 22.9938C98.3316 22.443 98.7981 21.611 99.4231 21.5443C100.048 21.4777 100.316 22.0574 100.065 22.6372Z" fill="#E4897B"/>
<path d="M103.233 20.292C103.664 20.104 104.041 19.8115 104.332 19.4407C104.622 19.0699 104.817 18.6323 104.898 18.1672C104.898 18.1672 105.848 20.8254 103.233 20.292Z" fill="#263238"/>
<path d="M105.635 20.2486C105.435 20.1131 105.204 20.0298 104.964 20.006C104.724 19.9822 104.482 20.0188 104.259 20.1124C104.259 20.1124 105.146 18.9557 105.635 20.2486Z" fill="#263238"/>
<path d="M98.3721 48.6371C98.3721 48.6371 100.774 64.9113 102.09 71.0076C103.53 77.675 108.973 99.9266 108.973 99.9266H112.847C112.847 99.9266 109.261 78.2229 108.438 71.6019C107.545 64.4272 105.673 48.6255 105.673 48.6255L98.3721 48.6371Z" fill="#407BFF"/>
<path opacity="0.5" d="M98.3721 48.6371C98.3721 48.6371 100.774 64.9113 102.09 71.0076C103.53 77.675 108.973 99.9266 108.973 99.9266H112.847C112.847 99.9266 109.261 78.2229 108.438 71.6019C107.545 64.4272 105.673 48.6255 105.673 48.6255L98.3721 48.6371Z" fill="white"/>
<path d="M108.354 98.4888C108.337 98.4888 108.754 99.9875 108.754 99.9875H113.115L113.034 98.6512L108.354 98.4888Z" fill="#407BFF"/>
<path opacity="0.1" d="M108.354 98.4888C108.337 98.4888 108.754 99.9875 108.754 99.9875H113.115L113.034 98.6512L108.354 98.4888Z" fill="black"/>
<path d="M99.8896 54.4349C102.666 54.9828 102.372 65.4042 102.038 70.7642C101.237 66.9754 100.065 59.6848 99.2646 54.5103C99.4583 54.4142 99.6788 54.3876 99.8896 54.4349Z" fill="#407BFF"/>
<path opacity="0.4" d="M99.8896 54.4349C102.666 54.9828 102.372 65.4042 102.038 70.7642C101.237 66.9754 100.065 59.6848 99.2646 54.5103C99.4583 54.4142 99.6788 54.3876 99.8896 54.4349Z" fill="white"/>
<path d="M94.357 48.6371C94.357 48.6371 94.069 64.5577 94.2965 71.054C94.5355 77.8084 96.8885 99.9267 96.8885 99.9267H100.471C100.471 99.9267 100.604 78.2026 100.759 71.57C100.935 64.3374 101.802 48.6371 101.802 48.6371H94.357Z" fill="#407BFF"/>
<path opacity="0.5" d="M94.357 48.6371C94.357 48.6371 94.069 64.5577 94.2965 71.054C94.5355 77.8084 96.8885 99.9267 96.8885 99.9267H100.471C100.471 99.9267 100.604 78.2026 100.759 71.57C100.935 64.3374 101.802 48.6371 101.802 48.6371H94.357Z" fill="white"/>
<path d="M97.6318 97.335C97.6231 97.3351 97.6147 97.3318 97.6083 97.3259C97.6019 97.32 97.5979 97.3119 97.5972 97.3032C96.9636 91.1808 95.4746 76.3676 95.2932 71.054C95.1002 65.6302 95.2759 53.4608 95.3335 49.8604C95.3335 49.8512 95.3372 49.8423 95.3436 49.8358C95.3501 49.8293 95.3589 49.8256 95.3681 49.8256C95.3775 49.8256 95.3866 49.8291 95.3936 49.8356C95.4005 49.8421 95.4048 49.8509 95.4055 49.8604C95.3479 53.4608 95.1722 65.6302 95.3652 71.0511C95.5524 76.3647 97.0414 91.1721 97.6692 97.2945C97.6693 97.3043 97.6658 97.3138 97.6595 97.3213C97.6531 97.3288 97.6443 97.3336 97.6346 97.335H97.6318Z" fill="#407BFF"/>
<path opacity="0.4" d="M97.6318 97.335C97.6231 97.3351 97.6147 97.3318 97.6083 97.3259C97.6019 97.32 97.5979 97.3119 97.5972 97.3032C96.9636 91.1808 95.4746 76.3676 95.2932 71.054C95.1002 65.6302 95.2759 53.4608 95.3335 49.8604C95.3335 49.8512 95.3372 49.8423 95.3436 49.8358C95.3501 49.8293 95.3589 49.8256 95.3681 49.8256C95.3775 49.8256 95.3866 49.8291 95.3936 49.8356C95.4005 49.8421 95.4048 49.8509 95.4055 49.8604C95.3479 53.4608 95.1722 65.6302 95.3652 71.0511C95.5524 76.3647 97.0414 91.1721 97.6692 97.2945C97.6693 97.3043 97.6658 97.3138 97.6595 97.3213C97.6531 97.3288 97.6443 97.3336 97.6346 97.335H97.6318Z" fill="white"/>
<path d="M96.1921 98.4888C96.1777 98.4888 96.3966 99.9875 96.3966 99.9875H100.754L100.872 98.6512L96.1921 98.4888Z" fill="#407BFF"/>
<path opacity="0.1" d="M96.1921 98.4888C96.1777 98.4888 96.3966 99.9875 96.3966 99.9875H100.754L100.872 98.6512L96.1921 98.4888Z" fill="black"/>
</svg>
