<svg xmlns="http://www.w3.org/2000/svg" xmlns:xlink="http://www.w3.org/1999/xlink" viewBox="0 0 600 400"><defs><style>.cls-1{isolation:isolate;}.cls-2{fill:none;}.cls-3{opacity:0.32;}.cls-4{mix-blend-mode:color-burn;}.cls-5{fill:#fff;}.cls-6{fill:#fefefe;}.cls-7{fill:#fdfdfd;}.cls-8{fill:#fcfcfc;}.cls-9{fill:#fbfbfb;}.cls-10{fill:#fafafa;}.cls-11{fill:#f9f9f9;}.cls-12{fill:#f8f8f8;}.cls-13{fill:#f7f7f7;}.cls-14{fill:#f6f6f6;}.cls-15{fill:#f5f5f5;}.cls-16{fill:#f4f4f4;}.cls-17{fill:#f3f3f3;}.cls-18{fill:#f2f2f2;}.cls-19{fill:#f1f1f1;}.cls-20{fill:#f0f0f0;}.cls-21{fill:#efefef;}.cls-22{fill:#eee;}.cls-23{fill:#ededed;}.cls-24{fill:#ececec;}.cls-25{fill:#ebebeb;}.cls-26{fill:#eaeaea;}.cls-27{fill:#e9e9e9;}.cls-28{fill:#e8e8e8;}.cls-29{fill:#e7e7e7;}.cls-30{fill:#e6e6e6;}.cls-31{fill:#e5e5e5;}.cls-32{fill:#e4e4e4;}.cls-33{fill:#e3e3e3;}.cls-34{fill:#e2e2e2;}.cls-35{fill:#e1e1e1;}.cls-175,.cls-36{fill:#e0e0e0;}.cls-37{fill:#dfdfdf;}.cls-38{fill:#dedede;}.cls-39{fill:#ddd;}.cls-40{fill:#dcdcdc;}.cls-41{fill:#dbdbdb;}.cls-42{fill:#dadada;}.cls-43{fill:#d9d9d9;}.cls-44{fill:#d8d8d8;}.cls-45{fill:#d7d7d7;}.cls-46{fill:#d6d6d6;}.cls-47{fill:#d5d5d5;}.cls-48{fill:#d4d4d4;}.cls-49{fill:#d3d3d3;}.cls-50{fill:#d2d2d2;}.cls-51{fill:#d1d1d1;}.cls-52{fill:#d0d0d0;}.cls-53{fill:#cfcfcf;}.cls-54{fill:#cecece;}.cls-55{fill:#cdcdcd;}.cls-56{fill:#ccc;}.cls-57{fill:#cbcbcb;}.cls-58{fill:#cacaca;}.cls-59{fill:#c9c9c9;}.cls-60{fill:#c8c8c8;}.cls-61{fill:#c7c7c7;}.cls-62{fill:#c6c6c6;}.cls-63{fill:#c5c5c5;}.cls-64{fill:#c4c4c4;}.cls-65{fill:#c3c3c3;}.cls-66{fill:#c2c2c2;}.cls-67{fill:#c1c1c1;}.cls-68{fill:silver;}.cls-69{fill:#bfbfbf;}.cls-70{fill:#bebebe;}.cls-71{fill:#bdbdbd;}.cls-72{fill:#bcbcbc;}.cls-73{fill:#bbb;}.cls-74{fill:#bababa;}.cls-75{fill:#b9b9b9;}.cls-76{fill:#b8b8b8;}.cls-77{fill:#b7b7b7;}.cls-78{fill:#b6b6b6;}.cls-79{fill:#b5b5b5;}.cls-80{fill:#b4b4b4;}.cls-81{fill:#b3b3b3;}.cls-82{fill:#b2b2b2;}.cls-83{fill:#b1b1b1;}.cls-84{fill:#b0b0b0;}.cls-85{fill:#afafaf;}.cls-86{fill:#aeaeae;}.cls-87{fill:#adadad;}.cls-88{fill:#acacac;}.cls-89{fill:#ababab;}.cls-90{fill:#aaa;}.cls-91{fill:#a9a9a9;}.cls-92{fill:#a8a8a8;}.cls-93{fill:#a7a7a7;}.cls-94{fill:#a6a6a6;}.cls-95{fill:#a5a5a5;}.cls-96{fill:#a4a4a4;}.cls-97{fill:#a3a3a3;}.cls-98{fill:#a2a2a2;}.cls-99{fill:#a1a1a1;}.cls-100{fill:#a0a0a0;}.cls-101{fill:#9f9f9f;}.cls-102{fill:#9e9e9e;}.cls-103{fill:#9d9d9d;}.cls-104{fill:#9c9c9c;}.cls-105{fill:#9b9b9b;}.cls-106{fill:#9a9a9a;}.cls-107{fill:#999;}.cls-108{fill:#989898;}.cls-109{fill:#979797;}.cls-110{fill:#969696;}.cls-111{fill:#959595;}.cls-112{fill:#949494;}.cls-113{fill:#939393;}.cls-114{fill:#929292;}.cls-115{fill:#919191;}.cls-116{fill:#909090;}.cls-117{fill:#8f8f8f;}.cls-118{fill:#8e8e8e;}.cls-119{fill:#8d8d8d;}.cls-120{fill:#8c8c8c;}.cls-121{fill:#8b8b8b;}.cls-122{fill:#8a8a8a;}.cls-123{fill:#898989;}.cls-124{fill:#888;}.cls-125{fill:#878787;}.cls-126{fill:#868686;}.cls-127{fill:#858585;}.cls-128{fill:#848484;}.cls-129{fill:#838383;}.cls-130{fill:#828282;}.cls-131{fill:#818181;}.cls-132{fill:gray;}.cls-133{fill:#7f7f7f;}.cls-134{fill:#7e7e7e;}.cls-135{fill:#7d7d7d;}.cls-136{fill:#7c7c7c;}.cls-137{fill:#7b7b7b;}.cls-138{fill:#7a7a7a;}.cls-139{fill:#797979;}.cls-140{fill:#787878;}.cls-141{fill:#777;}.cls-142{fill:#767676;}.cls-143{fill:#757575;}.cls-144{fill:#747474;}.cls-145{fill:#737373;}.cls-146{fill:#727272;}.cls-147{fill:#717171;}.cls-148{fill:#707070;}.cls-149{fill:#6f6f6f;}.cls-150{fill:#6e6e6e;}.cls-151{fill:#6d6d6d;}.cls-152{fill:#6c6c6c;}.cls-153{fill:#6b6b6b;}.cls-154{fill:#6a6a6a;}.cls-155{fill:#696969;}.cls-156{fill:#686868;}.cls-157{fill:#676767;}.cls-158{fill:#666;}.cls-159{fill:#656565;}.cls-160{fill:#646464;}.cls-161{fill:#636363;}.cls-162{fill:#626262;}.cls-163{fill:#616161;}.cls-164{fill:#606060;}.cls-165{fill:#5f5f5f;}.cls-166{fill:#5e5e5e;}.cls-167{fill:#5d5d5d;}.cls-168{fill:#5c5c5c;}.cls-169{fill:#5b5b5b;}.cls-170{fill:#5a5a5a;}.cls-171{fill:#595959;}.cls-172{fill:url(#linear-gradient);}.cls-173{fill:url(#linear-gradient-2);}.cls-174{fill:url(#radial-gradient);}.cls-175{mix-blend-mode:multiply;}</style><linearGradient id="linear-gradient" x1="251.32" y1="286.35" x2="342.63" y2="66.84" gradientTransform="matrix(0, 1.02, -0.99, 0, 474, -123.69)" gradientUnits="userSpaceOnUse"><stop offset="0.17" stop-color="#a4b3bd"/><stop offset="0.73" stop-color="#eff1f3"/><stop offset="0.85" stop-color="#fff"/></linearGradient><linearGradient id="linear-gradient-2" x1="251.69" y1="282.47" x2="348.07" y2="75.78" gradientUnits="userSpaceOnUse"><stop offset="0" stop-color="#fdfdfd"/><stop offset="0.3" stop-color="#f4f4f4"/><stop offset="0.79" stop-color="#ddd"/><stop offset="1" stop-color="#d0d0d0"/></linearGradient><radialGradient id="radial-gradient" cx="294" cy="204.45" r="114.62" gradientUnits="userSpaceOnUse"><stop offset="0" stop-color="#a0ba73"/><stop offset="0.2" stop-color="#99b56a"/><stop offset="0.58" stop-color="#92b05f"/><stop offset="1" stop-color="#8fae5b"/></radialGradient></defs><title>done</title><g class="cls-1"><g id="Layer_3" data-name="Layer 3"><rect class="cls-2" width="600" height="400"/></g><g id="Layer_2" data-name="Layer 2"><g class="cls-3"><g class="cls-4"><ellipse class="cls-5" cx="260" cy="229.22" rx="117.91" ry="116.17" transform="translate(23.08 482.22) rotate(-88.28)"/><ellipse class="cls-6" cx="260.24" cy="228.92" rx="117.91" ry="116.17" transform="translate(23.61 482.16) rotate(-88.28)"/><ellipse class="cls-7" cx="260.48" cy="228.62" rx="117.91" ry="116.17" transform="translate(24.15 482.11) rotate(-88.28)"/><ellipse class="cls-8" cx="260.72" cy="228.31" rx="117.91" ry="116.17" transform="translate(24.68 482.06) rotate(-88.28)"/><ellipse class="cls-9" cx="260.96" cy="228.01" rx="117.91" ry="116.17" transform="translate(25.22 482.01) rotate(-88.28)"/><ellipse class="cls-10" cx="261.2" cy="227.71" rx="117.91" ry="116.17" transform="translate(25.75 481.96) rotate(-88.28)"/><ellipse class="cls-11" cx="261.45" cy="227.41" rx="117.91" ry="116.17" transform="translate(26.29 481.91) rotate(-88.28)"/><ellipse class="cls-12" cx="261.69" cy="227.11" rx="117.91" ry="116.17" transform="translate(26.82 481.86) rotate(-88.28)"/><ellipse class="cls-13" cx="261.93" cy="226.81" rx="117.91" ry="116.17" transform="translate(27.36 481.81) rotate(-88.28)"/><ellipse class="cls-14" cx="262.17" cy="226.51" rx="117.91" ry="116.17" transform="translate(27.89 481.75) rotate(-88.28)"/><ellipse class="cls-15" cx="262.41" cy="226.21" rx="117.91" ry="116.17" transform="translate(28.42 481.7) rotate(-88.28)"/><ellipse class="cls-16" cx="262.65" cy="225.9" rx="117.91" ry="116.17" transform="translate(28.96 481.65) rotate(-88.28)"/><ellipse class="cls-17" cx="262.89" cy="225.6" rx="117.91" ry="116.17" transform="translate(29.49 481.6) rotate(-88.28)"/><ellipse class="cls-18" cx="263.13" cy="225.3" rx="117.91" ry="116.17" transform="translate(30.03 481.55) rotate(-88.28)"/><ellipse class="cls-19" cx="263.37" cy="225" rx="117.91" ry="116.17" transform="translate(30.56 481.5) rotate(-88.28)"/><ellipse class="cls-20" cx="263.61" cy="224.7" rx="117.91" ry="116.17" transform="translate(31.1 481.45) rotate(-88.28)"/><ellipse class="cls-21" cx="263.86" cy="224.4" rx="117.91" ry="116.17" transform="translate(31.63 481.4) rotate(-88.28)"/><ellipse class="cls-22" cx="264.1" cy="224.1" rx="117.91" ry="116.17" transform="translate(32.17 481.34) rotate(-88.28)"/><ellipse class="cls-23" cx="264.34" cy="223.8" rx="117.91" ry="116.17" transform="translate(32.7 481.29) rotate(-88.28)"/><ellipse class="cls-24" cx="264.58" cy="223.49" rx="117.91" ry="116.17" transform="translate(33.24 481.24) rotate(-88.28)"/><ellipse class="cls-25" cx="264.82" cy="223.19" rx="117.91" ry="116.17" transform="translate(33.77 481.19) rotate(-88.28)"/><ellipse class="cls-26" cx="265.06" cy="222.89" rx="117.91" ry="116.17" transform="translate(34.31 481.14) rotate(-88.28)"/><ellipse class="cls-27" cx="265.3" cy="222.59" rx="117.91" ry="116.17" transform="translate(34.84 481.09) rotate(-88.28)"/><ellipse class="cls-28" cx="265.54" cy="222.29" rx="117.91" ry="116.17" transform="translate(35.38 481.04) rotate(-88.28)"/><ellipse class="cls-29" cx="265.78" cy="221.99" rx="117.91" ry="116.17" transform="translate(35.91 480.98) rotate(-88.28)"/><ellipse class="cls-30" cx="266.02" cy="221.69" rx="117.91" ry="116.17" transform="translate(36.45 480.93) rotate(-88.28)"/><ellipse class="cls-31" cx="266.27" cy="221.39" rx="117.91" ry="116.17" transform="translate(36.98 480.88) rotate(-88.28)"/><ellipse class="cls-32" cx="266.51" cy="221.09" rx="117.91" ry="116.17" transform="translate(37.52 480.83) rotate(-88.28)"/><ellipse class="cls-33" cx="266.75" cy="220.78" rx="117.91" ry="116.17" transform="translate(38.05 480.78) rotate(-88.28)"/><ellipse class="cls-34" cx="266.99" cy="220.48" rx="117.91" ry="116.17" transform="translate(38.59 480.73) rotate(-88.28)"/><ellipse class="cls-35" cx="267.23" cy="220.18" rx="117.91" ry="116.17" transform="translate(39.12 480.68) rotate(-88.28)"/><ellipse class="cls-36" cx="267.47" cy="219.88" rx="117.91" ry="116.17" transform="translate(39.66 480.63) rotate(-88.28)"/><ellipse class="cls-37" cx="267.71" cy="219.58" rx="117.91" ry="116.17" transform="translate(40.19 480.57) rotate(-88.28)"/><ellipse class="cls-38" cx="267.95" cy="219.28" rx="117.91" ry="116.17" transform="translate(40.73 480.52) rotate(-88.28)"/><ellipse class="cls-39" cx="268.19" cy="218.98" rx="117.91" ry="116.17" transform="translate(41.26 480.47) rotate(-88.28)"/><ellipse class="cls-40" cx="268.43" cy="218.68" rx="117.91" ry="116.17" transform="translate(41.79 480.42) rotate(-88.28)"/><ellipse class="cls-41" cx="268.67" cy="218.37" rx="117.91" ry="116.17" transform="translate(42.33 480.37) rotate(-88.28)"/><ellipse class="cls-42" cx="268.92" cy="218.07" rx="117.91" ry="116.17" transform="translate(42.86 480.32) rotate(-88.28)"/><ellipse class="cls-43" cx="269.16" cy="217.77" rx="117.91" ry="116.17" transform="translate(43.4 480.27) rotate(-88.28)"/><ellipse class="cls-44" cx="269.4" cy="217.47" rx="117.91" ry="116.17" transform="translate(43.93 480.22) rotate(-88.28)"/><ellipse class="cls-45" cx="269.64" cy="217.17" rx="117.91" ry="116.17" transform="translate(44.47 480.16) rotate(-88.28)"/><ellipse class="cls-46" cx="269.88" cy="216.87" rx="117.91" ry="116.17" transform="translate(45 480.11) rotate(-88.28)"/><ellipse class="cls-47" cx="270.12" cy="216.57" rx="117.91" ry="116.17" transform="translate(45.54 480.06) rotate(-88.28)"/><ellipse class="cls-48" cx="270.36" cy="216.27" rx="117.91" ry="116.17" transform="translate(46.07 480.01) rotate(-88.28)"/><ellipse class="cls-49" cx="270.6" cy="215.96" rx="117.91" ry="116.17" transform="translate(46.61 479.96) rotate(-88.28)"/><ellipse class="cls-50" cx="270.84" cy="215.66" rx="117.91" ry="116.17" transform="translate(47.14 479.91) rotate(-88.28)"/><ellipse class="cls-51" cx="271.08" cy="215.36" rx="117.91" ry="116.17" transform="translate(47.68 479.86) rotate(-88.28)"/><ellipse class="cls-52" cx="271.33" cy="215.06" rx="117.91" ry="116.17" transform="translate(48.21 479.8) rotate(-88.28)"/><ellipse class="cls-53" cx="271.57" cy="214.76" rx="117.91" ry="116.17" transform="translate(48.75 479.75) rotate(-88.28)"/><ellipse class="cls-54" cx="271.81" cy="214.46" rx="117.91" ry="116.17" transform="translate(49.28 479.7) rotate(-88.28)"/><ellipse class="cls-55" cx="272.05" cy="214.16" rx="117.91" ry="116.17" transform="translate(49.82 479.65) rotate(-88.28)"/><ellipse class="cls-56" cx="272.29" cy="213.86" rx="117.91" ry="116.17" transform="translate(50.35 479.6) rotate(-88.28)"/><ellipse class="cls-57" cx="272.53" cy="213.56" rx="117.91" ry="116.17" transform="translate(50.89 479.55) rotate(-88.28)"/><ellipse class="cls-58" cx="272.77" cy="213.25" rx="117.91" ry="116.17" transform="translate(51.42 479.5) rotate(-88.28)"/><ellipse class="cls-59" cx="273.01" cy="212.95" rx="117.91" ry="116.17" transform="translate(51.96 479.45) rotate(-88.28)"/><ellipse class="cls-60" cx="273.25" cy="212.65" rx="117.91" ry="116.17" transform="translate(52.49 479.39) rotate(-88.28)"/><ellipse class="cls-61" cx="273.49" cy="212.35" rx="117.91" ry="116.17" transform="translate(53.03 479.34) rotate(-88.28)"/><ellipse class="cls-62" cx="273.73" cy="212.05" rx="117.91" ry="116.17" transform="translate(53.56 479.29) rotate(-88.28)"/><ellipse class="cls-63" cx="273.98" cy="211.75" rx="117.91" ry="116.17" transform="translate(54.09 479.24) rotate(-88.28)"/><ellipse class="cls-64" cx="274.22" cy="211.45" rx="117.91" ry="116.17" transform="translate(54.63 479.19) rotate(-88.28)"/><ellipse class="cls-65" cx="274.46" cy="211.15" rx="117.91" ry="116.17" transform="translate(55.16 479.14) rotate(-88.28)"/><ellipse class="cls-66" cx="274.7" cy="210.84" rx="117.91" ry="116.17" transform="translate(55.7 479.09) rotate(-88.28)"/><ellipse class="cls-67" cx="274.94" cy="210.54" rx="117.91" ry="116.17" transform="translate(56.23 479.04) rotate(-88.28)"/><ellipse class="cls-68" cx="275.18" cy="210.24" rx="117.91" ry="116.17" transform="translate(56.77 478.98) rotate(-88.28)"/><ellipse class="cls-69" cx="275.42" cy="209.94" rx="117.91" ry="116.17" transform="translate(57.3 478.93) rotate(-88.28)"/><ellipse class="cls-70" cx="275.66" cy="209.64" rx="117.91" ry="116.17" transform="translate(57.84 478.88) rotate(-88.28)"/><ellipse class="cls-71" cx="275.9" cy="209.34" rx="117.91" ry="116.17" transform="translate(58.37 478.83) rotate(-88.28)"/><ellipse class="cls-72" cx="276.14" cy="209.04" rx="117.91" ry="116.17" transform="translate(58.91 478.78) rotate(-88.28)"/><ellipse class="cls-73" cx="276.39" cy="208.74" rx="117.91" ry="116.17" transform="translate(59.44 478.73) rotate(-88.28)"/><ellipse class="cls-74" cx="276.63" cy="208.43" rx="117.91" ry="116.17" transform="translate(59.98 478.68) rotate(-88.28)"/><ellipse class="cls-75" cx="276.87" cy="208.13" rx="117.91" ry="116.17" transform="translate(60.51 478.62) rotate(-88.28)"/><ellipse class="cls-76" cx="277.11" cy="207.83" rx="117.91" ry="116.17" transform="translate(61.05 478.57) rotate(-88.28)"/><ellipse class="cls-77" cx="277.35" cy="207.53" rx="117.91" ry="116.17" transform="translate(61.58 478.52) rotate(-88.28)"/><ellipse class="cls-78" cx="277.59" cy="207.23" rx="117.91" ry="116.17" transform="translate(62.12 478.47) rotate(-88.28)"/><ellipse class="cls-79" cx="277.83" cy="206.93" rx="117.91" ry="116.17" transform="translate(62.65 478.42) rotate(-88.28)"/><ellipse class="cls-80" cx="278.07" cy="206.63" rx="117.91" ry="116.17" transform="translate(63.19 478.37) rotate(-88.28)"/><ellipse class="cls-81" cx="278.31" cy="206.33" rx="117.91" ry="116.17" transform="translate(63.72 478.32) rotate(-88.28)"/><ellipse class="cls-82" cx="278.55" cy="206.02" rx="117.91" ry="116.17" transform="translate(64.26 478.27) rotate(-88.28)"/><ellipse class="cls-83" cx="278.8" cy="205.72" rx="117.91" ry="116.17" transform="translate(64.79 478.21) rotate(-88.28)"/><ellipse class="cls-84" cx="279.04" cy="205.42" rx="117.91" ry="116.17" transform="translate(65.33 478.16) rotate(-88.28)"/><ellipse class="cls-85" cx="279.28" cy="205.12" rx="117.91" ry="116.17" transform="translate(65.86 478.11) rotate(-88.28)"/><ellipse class="cls-86" cx="279.52" cy="204.82" rx="117.91" ry="116.17" transform="translate(66.4 478.06) rotate(-88.28)"/><ellipse class="cls-87" cx="279.76" cy="204.52" rx="117.91" ry="116.17" transform="translate(66.93 478.01) rotate(-88.28)"/><ellipse class="cls-88" cx="280" cy="204.22" rx="117.91" ry="116.17" transform="translate(67.46 477.96) rotate(-88.28)"/><ellipse class="cls-89" cx="280.24" cy="203.92" rx="117.91" ry="116.17" transform="translate(68 477.91) rotate(-88.28)"/><ellipse class="cls-90" cx="280.48" cy="203.62" rx="117.91" ry="116.17" transform="translate(68.53 477.86) rotate(-88.28)"/><ellipse class="cls-91" cx="280.72" cy="203.31" rx="117.91" ry="116.17" transform="translate(69.07 477.8) rotate(-88.28)"/><ellipse class="cls-92" cx="280.96" cy="203.01" rx="117.91" ry="116.17" transform="translate(69.6 477.75) rotate(-88.28)"/><ellipse class="cls-93" cx="281.2" cy="202.71" rx="117.91" ry="116.17" transform="translate(70.14 477.7) rotate(-88.28)"/><ellipse class="cls-94" cx="281.45" cy="202.41" rx="117.91" ry="116.17" transform="translate(70.67 477.65) rotate(-88.28)"/><ellipse class="cls-95" cx="281.69" cy="202.11" rx="117.91" ry="116.17" transform="translate(71.21 477.6) rotate(-88.28)"/><ellipse class="cls-96" cx="281.93" cy="201.81" rx="117.91" ry="116.17" transform="translate(71.74 477.55) rotate(-88.28)"/><ellipse class="cls-97" cx="282.17" cy="201.51" rx="117.91" ry="116.17" transform="translate(72.28 477.5) rotate(-88.28)"/><ellipse class="cls-98" cx="282.41" cy="201.21" rx="117.91" ry="116.17" transform="translate(72.81 477.44) rotate(-88.28)"/><ellipse class="cls-99" cx="282.65" cy="200.9" rx="117.91" ry="116.17" transform="translate(73.35 477.39) rotate(-88.28)"/><ellipse class="cls-100" cx="282.89" cy="200.6" rx="117.91" ry="116.17" transform="translate(73.88 477.34) rotate(-88.28)"/><ellipse class="cls-101" cx="283.13" cy="200.3" rx="117.91" ry="116.17" transform="translate(74.42 477.29) rotate(-88.28)"/><ellipse class="cls-102" cx="283.37" cy="200" rx="117.91" ry="116.17" transform="translate(74.95 477.24) rotate(-88.28)"/><ellipse class="cls-103" cx="283.61" cy="199.7" rx="117.91" ry="116.17" transform="translate(75.49 477.19) rotate(-88.28)"/><ellipse class="cls-104" cx="283.86" cy="199.4" rx="117.91" ry="116.17" transform="translate(76.02 477.14) rotate(-88.28)"/><ellipse class="cls-105" cx="284.1" cy="199.1" rx="117.91" ry="116.17" transform="translate(76.56 477.09) rotate(-88.28)"/><ellipse class="cls-106" cx="284.34" cy="198.8" rx="117.91" ry="116.17" transform="translate(77.09 477.03) rotate(-88.28)"/><ellipse class="cls-107" cx="284.58" cy="198.49" rx="117.91" ry="116.17" transform="translate(77.63 476.98) rotate(-88.28)"/><ellipse class="cls-108" cx="284.82" cy="198.19" rx="117.91" ry="116.17" transform="translate(78.16 476.93) rotate(-88.28)"/><ellipse class="cls-109" cx="285.06" cy="197.89" rx="117.91" ry="116.17" transform="translate(78.7 476.88) rotate(-88.28)"/><ellipse class="cls-110" cx="285.3" cy="197.59" rx="117.91" ry="116.17" transform="translate(79.23 476.83) rotate(-88.28)"/><ellipse class="cls-111" cx="285.54" cy="197.29" rx="117.91" ry="116.17" transform="translate(79.77 476.78) rotate(-88.28)"/><ellipse class="cls-112" cx="285.78" cy="196.99" rx="117.91" ry="116.17" transform="translate(80.3 476.73) rotate(-88.28)"/><ellipse class="cls-113" cx="286.02" cy="196.69" rx="117.91" ry="116.17" transform="translate(80.83 476.68) rotate(-88.28)"/><ellipse class="cls-114" cx="286.27" cy="196.39" rx="117.91" ry="116.17" transform="translate(81.37 476.62) rotate(-88.28)"/><ellipse class="cls-115" cx="286.51" cy="196.09" rx="117.91" ry="116.17" transform="translate(81.9 476.57) rotate(-88.28)"/><ellipse class="cls-116" cx="286.75" cy="195.78" rx="117.91" ry="116.17" transform="translate(82.44 476.52) rotate(-88.28)"/><ellipse class="cls-117" cx="286.99" cy="195.48" rx="117.91" ry="116.17" transform="translate(82.97 476.47) rotate(-88.28)"/><ellipse class="cls-118" cx="287.23" cy="195.18" rx="117.91" ry="116.17" transform="translate(83.51 476.42) rotate(-88.28)"/><ellipse class="cls-119" cx="287.47" cy="194.88" rx="117.91" ry="116.17" transform="translate(84.04 476.37) rotate(-88.28)"/><ellipse class="cls-120" cx="287.71" cy="194.58" rx="117.91" ry="116.17" transform="translate(84.58 476.32) rotate(-88.28)"/><ellipse class="cls-121" cx="287.95" cy="194.28" rx="117.91" ry="116.17" transform="translate(85.11 476.26) rotate(-88.28)"/><ellipse class="cls-122" cx="288.19" cy="193.98" rx="117.91" ry="116.17" transform="translate(85.65 476.21) rotate(-88.28)"/><ellipse class="cls-123" cx="288.43" cy="193.68" rx="117.91" ry="116.17" transform="translate(86.18 476.16) rotate(-88.28)"/><ellipse class="cls-124" cx="288.67" cy="193.37" rx="117.91" ry="116.17" transform="translate(86.72 476.11) rotate(-88.28)"/><ellipse class="cls-125" cx="288.92" cy="193.07" rx="117.91" ry="116.17" transform="translate(87.25 476.06) rotate(-88.28)"/><ellipse class="cls-126" cx="289.16" cy="192.77" rx="117.91" ry="116.17" transform="translate(87.79 476.01) rotate(-88.28)"/><ellipse class="cls-127" cx="289.4" cy="192.47" rx="117.91" ry="116.17" transform="translate(88.32 475.96) rotate(-88.28)"/><ellipse class="cls-128" cx="289.64" cy="192.17" rx="117.91" ry="116.17" transform="translate(88.86 475.91) rotate(-88.28)"/><ellipse class="cls-129" cx="289.88" cy="191.87" rx="117.91" ry="116.17" transform="translate(89.39 475.85) rotate(-88.28)"/><ellipse class="cls-130" cx="290.12" cy="191.57" rx="117.91" ry="116.17" transform="translate(89.93 475.8) rotate(-88.28)"/><ellipse class="cls-131" cx="290.36" cy="191.27" rx="117.91" ry="116.17" transform="translate(90.46 475.75) rotate(-88.28)"/><ellipse class="cls-132" cx="290.6" cy="190.96" rx="117.91" ry="116.17" transform="translate(91 475.7) rotate(-88.28)"/><ellipse class="cls-133" cx="290.84" cy="190.66" rx="117.91" ry="116.17" transform="translate(91.53 475.65) rotate(-88.28)"/><ellipse class="cls-134" cx="291.08" cy="190.36" rx="117.91" ry="116.17" transform="translate(92.07 475.6) rotate(-88.28)"/><ellipse class="cls-135" cx="291.33" cy="190.06" rx="117.91" ry="116.17" transform="translate(92.6 475.55) rotate(-88.28)"/><ellipse class="cls-136" cx="291.57" cy="189.76" rx="117.91" ry="116.17" transform="translate(93.14 475.5) rotate(-88.28)"/><ellipse class="cls-137" cx="291.81" cy="189.46" rx="117.91" ry="116.17" transform="translate(93.67 475.44) rotate(-88.28)"/><ellipse class="cls-138" cx="292.05" cy="189.16" rx="117.91" ry="116.17" transform="translate(94.2 475.39) rotate(-88.28)"/><ellipse class="cls-139" cx="292.29" cy="188.86" rx="117.91" ry="116.17" transform="translate(94.74 475.34) rotate(-88.28)"/><ellipse class="cls-140" cx="292.53" cy="188.56" rx="117.91" ry="116.17" transform="translate(95.27 475.29) rotate(-88.28)"/><ellipse class="cls-141" cx="292.77" cy="188.25" rx="117.91" ry="116.17" transform="translate(95.81 475.24) rotate(-88.28)"/><ellipse class="cls-142" cx="293.01" cy="187.95" rx="117.91" ry="116.17" transform="translate(96.34 475.19) rotate(-88.28)"/><ellipse class="cls-143" cx="293.25" cy="187.65" rx="117.91" ry="116.17" transform="translate(96.88 475.14) rotate(-88.28)"/><ellipse class="cls-144" cx="293.49" cy="187.35" rx="117.91" ry="116.17" transform="translate(97.41 475.08) rotate(-88.28)"/><ellipse class="cls-145" cx="293.73" cy="187.05" rx="117.91" ry="116.17" transform="translate(97.95 475.03) rotate(-88.28)"/><ellipse class="cls-146" cx="293.98" cy="186.75" rx="117.91" ry="116.17" transform="translate(98.48 474.98) rotate(-88.28)"/><ellipse class="cls-147" cx="294.22" cy="186.45" rx="117.91" ry="116.17" transform="translate(99.02 474.93) rotate(-88.28)"/><ellipse class="cls-148" cx="294.46" cy="186.15" rx="117.91" ry="116.17" transform="translate(99.55 474.88) rotate(-88.28)"/><ellipse class="cls-149" cx="294.7" cy="185.84" rx="117.91" ry="116.17" transform="translate(100.09 474.83) rotate(-88.28)"/><ellipse class="cls-150" cx="294.94" cy="185.54" rx="117.91" ry="116.17" transform="translate(100.62 474.78) rotate(-88.28)"/><ellipse class="cls-151" cx="295.18" cy="185.24" rx="117.91" ry="116.17" transform="translate(101.16 474.73) rotate(-88.28)"/><ellipse class="cls-152" cx="295.42" cy="184.94" rx="117.91" ry="116.17" transform="translate(101.69 474.67) rotate(-88.28)"/><ellipse class="cls-153" cx="295.66" cy="184.64" rx="117.91" ry="116.17" transform="translate(102.23 474.62) rotate(-88.28)"/><ellipse class="cls-154" cx="295.9" cy="184.34" rx="117.91" ry="116.17" transform="translate(102.76 474.57) rotate(-88.28)"/><ellipse class="cls-155" cx="296.14" cy="184.04" rx="117.91" ry="116.17" transform="translate(103.3 474.52) rotate(-88.28)"/><ellipse class="cls-156" cx="296.39" cy="183.74" rx="117.91" ry="116.17" transform="translate(103.83 474.47) rotate(-88.28)"/><ellipse class="cls-157" cx="296.63" cy="183.43" rx="117.91" ry="116.17" transform="translate(104.37 474.42) rotate(-88.28)"/><ellipse class="cls-158" cx="296.87" cy="183.13" rx="117.91" ry="116.17" transform="translate(104.9 474.37) rotate(-88.28)"/><ellipse class="cls-159" cx="297.11" cy="182.83" rx="117.91" ry="116.17" transform="translate(105.44 474.32) rotate(-88.28)"/><ellipse class="cls-160" cx="297.35" cy="182.53" rx="117.91" ry="116.17" transform="translate(105.97 474.26) rotate(-88.28)"/><ellipse class="cls-161" cx="297.59" cy="182.23" rx="117.91" ry="116.17" transform="translate(106.5 474.21) rotate(-88.28)"/><ellipse class="cls-162" cx="297.83" cy="181.93" rx="117.91" ry="116.17" transform="translate(107.04 474.16) rotate(-88.28)"/><ellipse class="cls-163" cx="298.07" cy="181.63" rx="117.91" ry="116.17" transform="translate(107.57 474.11) rotate(-88.28)"/><ellipse class="cls-164" cx="298.31" cy="181.33" rx="117.91" ry="116.17" transform="translate(108.11 474.06) rotate(-88.28)"/><ellipse class="cls-165" cx="298.55" cy="181.02" rx="117.91" ry="116.17" transform="translate(108.64 474.01) rotate(-88.28)"/><ellipse class="cls-166" cx="298.8" cy="180.72" rx="117.91" ry="116.17" transform="translate(109.18 473.96) rotate(-88.28)"/><ellipse class="cls-167" cx="299.04" cy="180.42" rx="117.91" ry="116.17" transform="translate(109.71 473.91) rotate(-88.28)"/><ellipse class="cls-168" cx="299.28" cy="180.12" rx="117.91" ry="116.17" transform="translate(110.25 473.85) rotate(-88.28)"/><ellipse class="cls-169" cx="299.52" cy="179.82" rx="117.91" ry="116.17" transform="translate(110.78 473.8) rotate(-88.28)"/><ellipse class="cls-170" cx="299.76" cy="179.52" rx="117.91" ry="116.17" transform="translate(111.32 473.75) rotate(-88.28)"/><ellipse class="cls-171" cx="300" cy="179.22" rx="117.91" ry="116.17" transform="translate(111.85 473.7) rotate(-88.28)"/></g><ellipse class="cls-172" cx="300" cy="178.95" rx="117.91" ry="116.17" transform="translate(112.12 473.44) rotate(-88.28)"/><circle class="cls-173" cx="299.88" cy="179.12" r="114"/></g><path class="cls-5" d="M379.66,134.52a12.81,12.81,0,0,0-18-2.15s-69.85,58.69-71.87,60.46l-27.5-24.25a16.08,16.08,0,0,0-20.5-.63c-7,5.45-7.26,13.55-1.81,20.55l34.26,47.31c.15.2.36.45.53.65A19.35,19.35,0,0,0,302,238.67l76.68-89.21.23-.25C383.21,144.67,383.64,139.57,379.66,134.52Z"/><path class="cls-174" d="M379.66,129.52a12.81,12.81,0,0,0-18-2.15s-69.85,58.69-71.87,60.46l-27.5-24.25A16.07,16.07,0,0,0,239,185.5l35.26,45.31c.15.2.36.45.53.65A19.35,19.35,0,0,0,302,233.67l76.68-87.21.23-.25A12.82,12.82,0,0,0,379.66,129.52Z"/><path class="cls-175" d="M241.79,171a16.08,16.08,0,0,1,20.5.63L284.46,197a5,5,0,0,0,7.13.46l70.07-62.1a12.83,12.83,0,0,1,20.11,6.08,12.82,12.82,0,0,0-20.11-14.08s-69.85,58.69-71.87,60.46l-27.5-24.25a16.07,16.07,0,0,0-26.18,16.08A15.9,15.9,0,0,1,241.79,171Z"/></g></g></svg>