<svg id="SvgjsSvg1001" width="288" height="288" xmlns="http://www.w3.org/2000/svg" version="1.1" xmlns:xlink="http://www.w3.org/1999/xlink" xmlns:svgjs="http://svgjs.com/svgjs"><defs id="SvgjsDefs1002"></defs><g id="SvgjsG1008"><svg xmlns="http://www.w3.org/2000/svg" width="288" height="288" fill="none" viewBox="0 0 19 19"><rect width="2.293" height="18" x="1.53" y=".59" fill="#7dbf2a" class="color6cc2be svgShape"></rect><path fill="#7dbf2a" stroke="#fff" d="M4.74156 12.2693C4.74156 13.4044 3.80106 14.3407 2.62078 14.3407C1.4405 14.3407 0.5 13.4044 0.5 12.2693C0.5 11.1342 1.4405 10.1978 2.62078 10.1978C3.80106 10.1978 4.74156 11.1342 4.74156 12.2693Z" class="color6cc2be svgShape colorStrokefff svgStroke"></path><rect width="2.293" height="18" x="15.29" y=".59" fill="#7dbf2a" class="color6cc2be svgShape"></rect><path fill="#7dbf2a" stroke="#fff" d="M18.5006 12.2693C18.5006 13.4044 17.56 14.3407 16.3798 14.3407C15.1995 14.3407 14.259 13.4044 14.259 12.2693C14.259 11.1342 15.1995 10.1978 16.3798 10.1978C17.56 10.1978 18.5006 11.1342 18.5006 12.2693Z" class="color6cc2be svgShape colorStrokefff svgStroke"></path><rect width="2.293" height="18" x="8.405" y=".59" fill="#7dbf2a" class="color6cc2be svgShape"></rect><path fill="#7dbf2a" stroke="#fff" d="M11.725 7.12577C11.725 8.26087 10.7845 9.1972 9.60419 9.1972C8.42391 9.1972 7.48341 8.26087 7.48341 7.12577C7.48341 5.99067 8.42391 5.05434 9.60419 5.05434C10.7845 5.05434 11.725 5.99067 11.725 7.12577Z" class="color6cc2be svgShape colorStrokefff svgStroke"></path></svg></g></svg>