<svg width="18" height="18" viewBox="0 0 18 18" fill="none" xmlns="http://www.w3.org/2000/svg">
<path fill-rule="evenodd" clip-rule="evenodd" d="M2.24805 12.3965V16.8858C2.24805 17.5045 2.75989 18 3.3794 18H9H14.6206C15.2401 18 15.7519 17.5045 15.7519 16.8858V12.3965C15.7519 12.3965 18 5.96776 18 4.48149C18 3.2307 17.3763 2.10477 16.15 1.48601C14.903 0.856771 13.6234 1.0148 12.5906 1.82232C11.8049 0.689917 10.4549 -8.16034e-06 9 0V1.67643C9.89741 1.67643 10.6646 2.13443 11.2483 2.85201C11.6625 3.36121 12.2689 4.19962 12.2689 4.19962C12.2689 4.19962 13.0808 3.59627 13.6234 3.16741C14.1291 2.76775 14.7919 2.72167 15.3785 3.01449C15.9858 3.31757 16.3133 3.8215 16.3133 4.48149C16.3133 5.27041 14.4185 11.1778 14.1481 11.7883H13.1179L13.5218 7.21658C13.5319 7.10282 13.4943 6.98999 13.418 6.9051L13.4024 6.88766C13.3245 6.80098 13.2136 6.75148 13.0972 6.75148H12.8088C12.7185 6.75148 12.6307 6.78132 12.559 6.83638L12.5288 6.8596C12.4363 6.93069 12.3783 7.03785 12.3693 7.15434L12.0114 11.7883H9.61716V7.21257C9.61716 7.10112 9.57204 6.99445 9.49211 6.91695L9.44085 6.86724C9.36427 6.79299 9.26189 6.75148 9.15533 6.75148H9H8.84467C8.73811 6.75148 8.63573 6.79299 8.55915 6.86724L8.50789 6.91695C8.42796 6.99445 8.38284 7.10112 8.38284 7.21257V11.7883H5.98862L5.63074 7.15434C5.62175 7.03785 5.56374 6.93069 5.4712 6.8596L5.44098 6.83638C5.3693 6.78132 5.28149 6.75148 5.19117 6.75148H4.90282C4.78643 6.75148 4.67551 6.80098 4.59765 6.88766L4.58198 6.9051C4.50573 6.98999 4.46813 7.10282 4.47818 7.21658L4.88213 11.7883H3.85195C3.58145 11.1778 1.68666 5.27041 1.68666 4.48149C1.68666 3.8215 2.01425 3.31757 2.62145 3.01449C3.20807 2.72167 3.87089 2.76775 4.37657 3.16741C4.91922 3.59627 5.73107 4.19962 5.73107 4.19962C5.73107 4.19962 6.33753 3.36121 6.75172 2.85201C7.33539 2.13443 8.10259 1.67643 9 1.67643V0C7.54512 -8.16034e-06 6.1951 0.689917 5.40937 1.82232C4.37658 1.0148 3.09695 0.856771 1.84996 1.48601C0.623721 2.10477 0 3.2307 0 4.48149C0 5.96776 2.24805 12.3965 2.24805 12.3965ZM3.94478 13.4989V16.3078H14.0552V13.4989H3.94478Z" fill="#6cc2be"/>
</svg>
