<svg id="SvgjsSvg1001" width="288" height="288" xmlns="http://www.w3.org/2000/svg" version="1.1" xmlns:xlink="http://www.w3.org/1999/xlink" xmlns:svgjs="http://svgjs.com/svgjs"><defs id="SvgjsDefs1002"></defs><g id="SvgjsG1008"><svg xmlns="http://www.w3.org/2000/svg" width="288" height="288" fill="none" viewBox="0 0 57 57"><path fill="#7dbf2a" d="M5.03601 13.2069C8.12772 8.39008 13.207 4.23007 18.2862 1.82164C21.8196 0.070061 26.2363 -0.148885 30.2114 0.0700638C33.7447 0.289012 37.2781 0.726906 40.5907 1.82165C45.8907 3.57323 50.5283 7.51429 53.1783 12.3311C56.0492 17.3669 56.7117 23.2785 56.9326 28.9712C57.1534 33.3501 56.9326 37.948 54.7242 41.6701C52.5158 45.3923 48.7616 47.8007 45.2282 49.9902C37.0573 54.5881 27.5613 58.3102 18.2862 56.5586C16.2987 56.3396 14.532 55.6828 12.7653 54.807C9.67357 53.0554 7.24437 50.2091 5.25684 47.1438C-1.14741 37.0722 -2.25159 22.8406 5.03601 13.2069Z" class="color44716e svgShape"></path></svg></g></svg>