<svg xmlns="http://www.w3.org/2000/svg" viewBox="0 0 180 55.18"><defs><clipPath id="clip-path"><path fill="none" d="M0 0h180v55.18H0z"/></clipPath><style>.cls-3{fill:#151B1A;fill-rule:evenodd}</style></defs><g id="Layer_2" data-name="Layer 2"><g clip-path="url(#clip-path)" id="Layer_1-2" data-name="Layer 1"><path class="cls-3" d="M63.37 54.37L72.52.89h14.6L78 54.37zm67.5-52.16A39.24 39.24 0 00117.81 0c-14.46 0-24.56 7.23-24.64 17.63-.07 7.67 7.23 12 12.76 14.53s7.6 4.28 7.53 6.64c0 3.62-4.5 5.24-8.71 5.24A30.62 30.62 0 0191 41.24l-1.92-.89-2 11.95c3.4 1.55 9.67 2.81 16.23 2.88 15.35 0 25.23-7.16 25.38-18.29.07-6.05-3.84-10.7-12.25-14.54-5.09-2.43-8.18-4.06-8.18-6.56 0-2.29 2.65-4.65 8.33-4.65a26.56 26.56 0 0110.92 2.06l1.33.59 2-11.58zM168.27 1H157c-3.46 0-6.12 1-7.67 4.43L127.7 54.44H143s2.51-6.64 3.1-8h18.66c.44 1.85 1.77 8 1.77 8H180zm-18 34.45c1.18-3 5.83-14.9 5.83-14.9-.15.15 1.18-3.1 1.92-5.09L159 20s2.8 12.76 3.39 15.42zM51.2 1L36.89 37.4 35.41 30c-2.66-8.55-11-17.77-20.21-22.42l13.05 46.79h15.42L66.61 1z"/><path class="cls-3" d="M23.68.89H.15L0 2.07C18.22 6.49 30.39 17.19 35.41 30L30.25 5.46C29.36 2.07 26.85 1 23.68.89z"/></g></g></svg>